<svg width="432" height="432" viewBox="0 0 432 432" fill="none" xmlns="http://www.w3.org/2000/svg">
<g clip-path="url(#clip0_40_6)">
<path fill-rule="evenodd" clip-rule="evenodd" d="M378.822 105.155L227.519 16.9224C219.778 12.4082 210.272 12.3569 202.485 16.7855L48.9753 104.086C40.9167 108.669 35.9004 117.373 36.0016 126.844L37.9037 304.772C38.0016 313.941 42.8834 322.311 50.639 326.833L201.943 415.067C209.862 419.685 219.616 419.625 227.483 414.908L376.973 325.265C384.567 320.71 389.33 312.441 389.442 303.396L391.557 127.812C391.67 118.428 386.758 109.783 378.822 105.155ZM402.941 303.559C402.774 317.245 395.567 329.856 383.916 336.842L234.425 426.486C222.337 433.734 207.317 433.828 195.142 426.73L43.8389 338.495C31.9409 331.558 24.5526 318.792 24.4045 304.916L22.5024 126.988C22.3492 112.658 29.9377 99.3821 42.3015 92.3508L195.81 5.05061C207.782 -1.75777 222.422 -1.67767 234.319 5.26028L385.623 93.4929C397.798 100.592 405.227 113.777 405.056 127.975L402.941 303.559Z" fill="url(#paint0_linear_40_6)"/>
<path d="M215.446 225.331C215.446 199.005 236.788 177.554 263.223 177.554C289.549 177.554 311 198.897 311 225.331C311 251.657 289.657 273.108 263.223 273.108C236.897 273.108 215.446 251.657 215.446 225.331Z" fill="#1ABCFE"/>
<path d="M120 320.777C120 294.451 141.343 273 167.777 273H215.554V320.777C215.554 347.103 194.212 368.554 167.777 368.554C141.343 368.554 120 347.211 120 320.777Z" fill="#0ACF83"/>
<path d="M215.446 82.1083V177.554H263.223C289.549 177.554 311 156.212 311 129.777C311 103.451 289.657 82 263.223 82H215.446V82.1083Z" fill="#FF7262"/>
<path d="M120 129.885C120 156.212 141.343 177.663 167.777 177.663H215.554V82.1084H167.777C141.343 82.1084 120 103.451 120 129.885Z" fill="#F24E1E"/>
<path d="M120 225.331C120 251.657 141.343 273.108 167.777 273.108H215.554V177.554H167.777C141.343 177.554 120 199.005 120 225.331Z" fill="#A259FF"/>
</g>
<defs>
<linearGradient id="paint0_linear_40_6" x1="123.453" y1="43.1989" x2="314.032" y2="378.064" gradientUnits="userSpaceOnUse">
<stop stop-color="#F24E1E"/>
<stop offset="1" stop-color="#A259FF"/>
</linearGradient>
<clipPath id="clip0_40_6">
<rect width="432" height="432" fill="white"/>
</clipPath>
</defs>
</svg>
