<svg width="80" height="80" viewBox="0 0 80 80" fill="none" xmlns="http://www.w3.org/2000/svg">
<path fill-rule="evenodd" clip-rule="evenodd" d="M70.1522 19.4732L42.1332 3.13378C40.6996 2.29781 38.9392 2.28831 37.4972 3.10842L9.0695 19.2751C7.57716 20.1238 6.64822 21.7357 6.66697 23.4896L7.0192 56.4392C7.03733 58.1372 7.94137 59.6872 9.3776 60.5246L37.3969 76.8643C38.8633 77.7194 40.6696 77.7083 42.1264 76.8348L69.8098 60.2342C71.2161 59.3908 72.0982 57.8595 72.1189 56.1845L72.5105 23.6689C72.5314 21.9311 71.6218 20.3301 70.1522 19.4732ZM74.6187 56.2146C74.5877 58.749 73.2531 61.0844 71.0956 62.3782L43.412 78.9789C41.1735 80.3211 38.392 80.3386 36.1375 79.024L8.11832 62.6843C5.91498 61.3996 4.54678 59.0355 4.51935 56.4659L4.16711 23.5163C4.13875 20.8626 5.54403 18.4041 7.83361 17.102L36.2612 0.935298C38.4781 -0.325512 41.1892 -0.310679 43.3925 0.974126L71.4116 17.3135C73.6663 18.6282 75.042 21.0699 75.0103 23.699L74.6187 56.2146Z" fill="url(#paint0_linear_25833_204863)"/>
<path d="M63.4551 23.5308L42.4408 11.6848C40.7883 10.7533 38.755 10.7425 37.0923 11.6566L15.7716 23.3774C14.0544 24.3215 13.0005 26.1039 13.0217 28.0278L13.2859 51.9163C13.3065 53.7792 14.3326 55.4932 15.9851 56.4246L36.9996 68.2709C38.6904 69.224 40.7766 69.2113 42.4554 68.2382L63.2181 56.2027C64.8362 55.2647 65.8372 53.5715 65.8604 51.7341L66.1541 28.1603C66.1779 26.2542 65.1461 24.484 63.4551 23.5308Z" fill="url(#paint1_linear_25833_204863)"/>
<path d="M38.6006 20.3612C39.0964 20.0786 39.6549 19.9302 40.2229 19.9302C40.7909 19.9302 41.3494 20.0786 41.8452 20.3612C46.7853 23.2075 51.7258 26.0533 56.6667 28.8987C57.1313 29.1685 57.5183 29.5581 57.7888 30.0284C58.0593 30.4988 58.2038 31.0334 58.2079 31.5786V48.7095C58.1982 49.2748 58.0393 49.827 57.7479 50.3081C57.4565 50.7891 57.0433 51.1811 56.5519 51.4429C51.6276 54.2739 46.7046 57.1061 41.7828 59.9396C41.2777 60.2245 40.7069 60.3662 40.1299 60.3498C39.553 60.3335 38.9908 60.1598 38.502 59.8467C37.0261 58.9738 35.549 58.1029 34.0706 57.2342C33.7462 57.0843 33.4553 56.8682 33.2158 56.5992C33.4042 56.3447 33.7412 56.3078 34.0145 56.1946C34.621 55.9732 35.2059 55.6946 35.7616 55.3623C35.8316 55.3202 35.9124 55.3003 35.9935 55.3053C36.0747 55.3103 36.1525 55.3399 36.2171 55.3903C37.48 56.1284 38.7304 56.8881 39.997 57.6185C40.2678 57.7776 40.5411 57.5664 40.772 57.4353C45.6039 54.6501 50.4375 51.8684 55.2728 49.09C55.359 49.0461 55.4303 48.9767 55.4772 48.8909C55.5242 48.8051 55.5447 48.7069 55.5361 48.609C55.5361 42.9598 55.5361 37.3097 55.5361 31.6588C55.5449 31.5489 55.5198 31.4389 55.4643 31.3442C55.4088 31.2495 55.3257 31.1749 55.2266 31.1307C50.3181 28.3124 45.4121 25.4929 40.5086 22.6721C40.4236 22.6128 40.3229 22.581 40.2198 22.581C40.1167 22.581 40.016 22.6128 39.9309 22.6721C35.0224 25.4921 30.1168 28.3129 25.2142 31.1345C25.1147 31.1776 25.0311 31.2515 24.9753 31.3459C24.9195 31.4403 24.8943 31.5503 24.9034 31.6601C24.9034 37.3093 24.9034 42.9593 24.9034 48.6102C24.8949 48.7079 24.916 48.8059 24.9637 48.891C25.0115 48.976 25.0836 49.0442 25.1705 49.0862C26.48 49.8429 27.7899 50.5975 29.1002 51.35C29.4635 51.5791 29.8702 51.7274 30.2936 51.7853C30.717 51.8432 31.1476 51.8093 31.5573 51.686C31.9123 51.5495 32.2181 51.3058 32.4337 50.9875C32.6493 50.6691 32.7646 50.2913 32.7641 49.9044C32.7703 44.2874 32.7641 38.6705 32.7641 33.0548C32.7626 32.9952 32.7735 32.9359 32.7961 32.881C32.8187 32.826 32.8524 32.7765 32.895 32.7357C32.9377 32.695 32.9884 32.6639 33.0436 32.6446C33.0989 32.6252 33.1576 32.618 33.2158 32.6234C33.8398 32.6234 34.475 32.6145 35.1039 32.6234C35.1648 32.6263 35.2243 32.6421 35.2788 32.6699C35.3332 32.6978 35.3814 32.7369 35.4201 32.7849C35.4588 32.8329 35.4872 32.8886 35.5034 32.9484C35.5197 33.0083 35.5234 33.071 35.5145 33.1324C35.5145 38.785 35.5207 44.4376 35.5145 50.0889C35.5563 50.8567 35.3955 51.622 35.0487 52.3048C34.7019 52.9877 34.1819 53.5632 33.5428 53.9714C32.6886 54.3773 31.7536 54.575 30.8116 54.5487C29.8697 54.5224 28.9466 54.2729 28.1156 53.82C26.6755 53.087 25.3015 52.223 23.8876 51.4378C23.3969 51.1767 22.9842 50.7855 22.6932 50.3053C22.4022 49.8252 22.2436 49.2739 22.2341 48.7095V31.5786C22.2384 31.0219 22.3888 30.4766 22.6697 29.9993C22.9506 29.5219 23.3517 29.13 23.8315 28.8643C28.7566 26.0316 33.6796 23.1973 38.6006 20.3612Z" fill="#8CC84B"/>
<path d="M42.8951 32.2248C45.0706 31.9376 47.2814 32.2826 49.2732 33.2199C49.995 33.659 50.5918 34.2827 51.0044 35.0294C51.417 35.776 51.6311 36.6196 51.6255 37.4767C51.5975 37.5839 51.5324 37.6771 51.4423 37.7393C51.3522 37.8015 51.2431 37.8284 51.1351 37.8152C50.5112 37.8152 49.8872 37.8241 49.2632 37.8152C49.1435 37.8073 49.031 37.7542 48.9477 37.6661C48.8643 37.5781 48.8162 37.4615 48.8127 37.3392C48.7422 36.9242 48.5838 36.5298 48.3487 36.1835C48.1136 35.8371 47.8074 35.5471 47.4513 35.3337C46.2663 34.8539 44.9868 34.6672 43.7175 34.789C42.7822 34.7592 41.857 34.9939 41.0445 35.4673C40.7647 35.6885 40.5599 35.9936 40.4589 36.3396C40.358 36.6857 40.3659 37.0553 40.4816 37.3965C40.6813 37.8813 41.2304 38.0328 41.6796 38.1817C44.2678 38.8714 47.0095 38.8027 49.5478 39.7088C50.0929 39.863 50.596 40.1426 51.0187 40.526C51.4414 40.9094 51.7724 41.3864 51.9862 41.9205C52.2407 42.6783 52.3023 43.4896 52.165 44.2783C52.0276 45.0669 51.696 45.8071 51.2013 46.4292C50.3063 47.3765 49.1436 48.0154 47.8756 48.2566C46.2238 48.5987 44.5294 48.6721 42.8552 48.4742C41.2484 48.3808 39.7077 47.79 38.4388 46.7804C37.9353 46.31 37.54 45.7319 37.2812 45.0876C37.0223 44.4432 36.9062 43.7485 36.9413 43.0531C36.9526 42.9406 37.0072 42.8373 37.093 42.7658C37.1788 42.6943 37.289 42.6603 37.3993 42.6713C38.0232 42.6713 38.6534 42.665 39.2811 42.6713C39.3392 42.67 39.397 42.6804 39.4512 42.702C39.5053 42.7236 39.5547 42.7559 39.5965 42.7971C39.6382 42.8383 39.6716 42.8875 39.6946 42.9419C39.7176 42.9964 39.7297 43.0549 39.7304 43.1142C39.7617 43.5094 39.872 43.8939 40.0544 44.244C40.2368 44.5942 40.4875 44.9026 40.7911 45.1503C42.1347 45.8244 43.6361 46.103 45.1264 45.9545C46.3738 46.0502 47.6187 45.7382 48.6805 45.0637C48.9246 44.8204 49.1022 44.5163 49.1959 44.1816C49.2896 43.8468 49.296 43.493 49.2146 43.1549C49.0623 42.5899 48.482 42.3264 47.9841 42.1546C45.4296 41.33 42.6568 41.6291 40.1222 40.6976C39.5915 40.5392 39.1008 40.2654 38.684 39.895C38.2671 39.5246 37.9339 39.0664 37.7075 38.552C37.4168 37.7841 37.3434 36.9484 37.4956 36.14C37.6479 35.3316 38.0196 34.5831 38.5686 33.9796C39.7646 32.903 41.2874 32.2789 42.8814 32.212L42.8951 32.2248Z" fill="#8CC84B"/>
<defs>
<linearGradient id="paint0_linear_25833_204863" x1="22.8617" y1="7.99979" x2="58.1541" y2="70.0119" gradientUnits="userSpaceOnUse">
<stop stop-color="#8CC84B"/>
<stop offset="1" stop-color="#8CC84B" stop-opacity="0.25"/>
</linearGradient>
<linearGradient id="paint1_linear_25833_204863" x1="13.0313" y1="11.1384" x2="70.8891" y2="64.1604" gradientUnits="userSpaceOnUse">
<stop stop-color="#3B6630"/>
<stop offset="1" stop-color="#121214"/>
</linearGradient>
</defs>
</svg>
