<svg width="80" height="80" viewBox="0 0 80 80" fill="none" xmlns="http://www.w3.org/2000/svg">
<path fill-rule="evenodd" clip-rule="evenodd" d="M70.1522 19.4732L42.1331 3.13378C40.6995 2.29781 38.9391 2.28831 37.4971 3.10842L9.06944 19.2751C7.5771 20.1238 6.64816 21.7357 6.6669 23.4896L7.01914 56.4392C7.03727 58.1372 7.94131 59.6872 9.37754 60.5246L37.3968 76.8643C38.8632 77.7194 40.6695 77.7083 42.1263 76.8348L69.8098 60.2342C71.2161 59.3908 72.0982 57.8595 72.1188 56.1845L72.5104 23.6689C72.5313 21.9311 71.6218 20.3301 70.1522 19.4732ZM74.6186 56.2146C74.5877 58.749 73.253 61.0844 71.0955 62.3782L43.412 78.9789C41.1735 80.3211 38.3919 80.3386 36.1375 79.0239L8.11826 62.6843C5.91492 61.3996 4.54671 59.0355 4.51929 56.4659L4.16705 23.5163C4.13868 20.8626 5.54397 18.4041 7.83355 17.102L36.2612 0.935298C38.478 -0.325512 41.1891 -0.310679 43.3925 0.974125L71.4115 17.3135C73.6662 18.6282 75.0419 21.0699 75.0102 23.699L74.6186 56.2146Z" fill="url(#paint0_linear_25833_204862)"/>
<path d="M64.0808 23.5317L42.8447 11.6853C41.1748 10.7538 39.12 10.743 37.4398 11.6571L15.8941 23.3783C14.1588 24.3223 13.0937 26.1048 13.1152 28.0288L13.3822 51.9179C13.4029 53.7809 14.4399 55.4949 16.1099 56.4263L37.3461 68.2729C39.0547 69.226 41.1629 69.2134 42.8595 68.2402L63.8413 56.2044C65.4764 55.2664 66.488 53.5731 66.5115 51.7357L66.8083 28.1613C66.8323 26.2551 65.7896 24.4848 64.0808 23.5317Z" fill="url(#paint1_linear_25833_204862)"/>
<path d="M41.0964 54.4232C40.7329 54.1018 40.3536 53.7792 39.9913 53.422C39.7017 53.6896 39.4302 53.9405 39.1431 54.1902C35.5574 57.2812 31.8615 58.568 29.6707 57.317C27.5513 56.1198 26.8836 52.5832 27.7318 48.1337C27.8223 47.6514 27.931 47.1691 28.0578 46.6868C27.6773 46.5748 27.315 46.4718 26.9527 46.3508C22.4412 44.811 19.4712 42.3102 19.4712 39.8083C19.4712 37.3971 22.2425 35.0565 26.5709 33.5558C27.0557 33.3946 27.567 33.2344 28.0929 33.0911C27.9718 32.6263 27.876 32.1794 27.7851 31.7472C26.8787 27.2305 27.5125 23.6222 29.6501 22.4071C31.8773 21.1203 35.5732 22.4967 39.2848 25.7299C39.5017 25.9258 39.7199 26.1409 39.9549 26.3548C40.2991 26.0334 40.625 25.7119 40.9692 25.4264C44.4833 22.4026 47.9781 21.1382 50.1156 22.3533C52.3429 23.6031 52.996 27.4624 51.9999 32.2332C51.9454 32.5378 51.8787 32.8234 51.8012 33.1291C52.2544 33.2546 52.7064 33.3968 53.1232 33.5401C57.5426 35.0408 60.4048 37.3814 60.3684 39.8464C60.3684 42.3651 57.3075 44.849 52.6131 46.3856C52.3598 46.4572 52.1066 46.5468 51.8521 46.6174C51.9612 46.9746 52.0326 47.3319 52.1054 47.6891C53.0469 52.3166 52.3223 56.1042 50.1314 57.3551C49.556 57.6752 48.8943 57.8383 48.2228 57.8255C46.2149 57.8221 43.6654 56.6003 41.0964 54.4232ZM44.6469 47.8661C43.6065 49.3618 42.4631 50.7942 41.2237 52.1542C41.5678 52.4902 41.9119 52.7982 42.2561 53.0838C45.2443 55.6204 47.9975 56.5678 49.2844 55.8354C49.6774 55.5226 49.9985 55.1401 50.2287 54.7105C50.4589 54.281 50.5935 53.8131 50.6246 53.3346C50.886 51.5616 50.8122 49.7602 50.4065 48.0105C50.3519 47.6891 50.2853 47.3677 50.1895 47.0284C48.3646 47.4231 46.5128 47.703 44.6469 47.8661ZM29.4683 48.4384C28.7267 52.2461 29.2696 55.0839 30.5589 55.8175C31.0157 55.9939 31.5088 56.0753 32.0035 56.056C32.4981 56.0366 32.9821 55.917 33.4211 55.7055C35.129 55.0421 36.6844 54.0839 38.004 52.8822C38.2754 52.6671 38.5287 52.4174 38.8013 52.1677C37.5347 50.8072 36.361 49.375 35.2872 47.8795C33.4284 47.736 31.5825 47.4741 29.7627 47.0956C29.6501 47.5626 29.5592 48.0083 29.4683 48.4384ZM40.0107 50.9391C40.808 50.0633 41.6042 49.0991 42.4015 48.0273C41.6042 48.0632 40.7717 48.0811 39.938 48.0811C39.1043 48.0811 38.3263 48.0632 37.5472 48.0273C38.3615 49.0801 39.177 50.0633 40.0095 50.9391H40.0107ZM36.2057 33.5021C35.5174 34.4842 34.8473 35.5179 34.2136 36.6109C33.5798 37.6827 33.0018 38.7724 32.4747 39.8587C33.0188 40.9305 33.598 42.0201 34.2318 43.1288C34.8655 44.2006 35.5356 45.2567 36.2239 46.2545C37.4187 46.3262 38.6693 46.3665 39.9368 46.3665C41.2043 46.3665 42.4718 46.3307 43.686 46.2422C44.3379 45.26 45.008 44.2051 45.643 43.1154C46.278 42.0257 46.8741 40.9181 47.4001 39.8464C46.8741 38.7925 46.2767 37.7029 45.643 36.6121C45.0092 35.5213 44.3391 34.4842 43.669 33.5032C42.4572 33.4136 41.2055 33.3598 39.938 33.3598C38.6705 33.3598 37.4199 33.4125 36.2057 33.5021ZM30.2293 45.4538C31.472 45.7161 32.7298 45.9132 33.9967 46.044C33.5616 45.3653 33.1278 44.6855 32.711 43.971C32.3123 43.2744 31.9136 42.5778 31.5513 41.8813C31.0266 43.0952 30.5916 44.2947 30.2293 45.4538ZM47.1638 43.9531C46.7469 44.6676 46.3301 45.3463 45.9144 46.0081C47.2003 45.8593 48.4762 45.6446 49.7363 45.3653C49.3429 44.1593 48.8834 42.9725 48.3598 41.8096C47.9793 42.5241 47.5806 43.2386 47.1638 43.9531ZM27.132 35.1987C23.4373 36.4855 21.2101 38.3591 21.2101 39.8262C21.2805 40.2982 21.4511 40.7527 21.7121 41.1636C21.9731 41.5745 22.3193 41.9337 22.7309 42.2206C24.1445 43.3192 25.7656 44.1671 27.5125 44.7214C27.8385 44.8333 28.1826 44.9185 28.5267 45.026C29.0831 43.2686 29.7545 41.5442 30.5371 39.8621C29.7529 38.2087 29.0875 36.5095 28.5449 34.7754C28.0562 34.8964 27.5852 35.0375 27.132 35.1987ZM49.3558 39.8262C50.1596 41.4869 50.8476 43.1934 51.4159 44.9353C51.6521 44.8636 51.8872 44.7919 52.1041 44.7202C56.143 43.3987 58.6477 41.3795 58.661 39.8072C58.661 38.3423 56.3429 36.4474 52.5573 35.1618C52.1768 35.0375 51.7612 34.912 51.3456 34.7866C50.7968 36.5032 50.1323 38.1864 49.3558 39.8262ZM47.1468 35.7173C47.5636 36.4318 47.9623 37.1295 48.3234 37.826C48.8266 36.6876 49.2619 35.5245 49.6273 34.342C48.397 34.0657 47.1515 33.8511 45.8962 33.6992C46.3313 34.3588 46.7469 35.0207 47.1456 35.7173H47.1468ZM30.2475 34.3274C30.611 35.4709 31.0448 36.6322 31.5513 37.8283C31.9149 37.1317 32.3123 36.4351 32.711 35.7385C33.1097 35.0419 33.5253 34.3633 33.9603 33.7014C32.6565 33.8593 31.4253 34.0732 30.2475 34.3274ZM42.1107 26.7344C41.8029 27.0021 41.4951 27.2877 41.1861 27.5744C42.4438 28.9177 43.5998 30.3396 44.6457 31.83C46.4889 31.9945 48.3169 32.2812 50.1156 32.6879C50.1883 32.4202 50.2368 32.1514 50.2974 31.8838C51.1456 27.7748 50.6234 24.6301 49.2468 23.845C48.9446 23.6883 48.6019 23.6109 48.2556 23.6211C46.776 23.6143 44.5051 24.6794 42.1107 26.7311V26.7344ZM30.5189 23.8898C29.2332 24.6223 28.7255 27.552 29.4865 31.4112C29.5773 31.8222 29.6682 32.2321 29.7761 32.661C31.5772 32.2692 33.4046 31.9886 35.246 31.8211C36.2957 30.3288 37.4578 28.9067 38.7238 27.5654C38.5251 27.3683 38.3069 27.1902 38.1082 27.011C35.5877 24.8082 33.1642 23.6457 31.5816 23.6457C31.2097 23.634 30.8416 23.7185 30.5189 23.8898ZM42.3639 31.6788C41.617 30.68 40.8112 29.7199 39.9501 28.8029C39.1358 29.6776 38.3203 30.6429 37.5266 31.6788C38.3239 31.643 39.12 31.6251 39.9356 31.6251C40.7511 31.6251 41.5678 31.6396 42.3652 31.6788H42.3639ZM36.3148 39.8979C36.2978 39.4387 36.379 38.981 36.5538 38.5509C36.7286 38.1207 36.9935 37.7267 37.3334 37.3914C37.6732 37.0561 38.0813 36.7861 38.5343 36.5968C38.9873 36.4075 39.4762 36.3027 39.9731 36.2884C40.9757 36.32 41.9238 36.7177 42.6096 37.3943C43.2953 38.0709 43.6628 38.9712 43.6315 39.8979C43.6638 40.8253 43.2966 41.7267 42.6104 42.404C41.9243 43.0814 40.9753 43.4795 39.9719 43.5107C39.4748 43.4964 38.9856 43.3915 38.5324 43.202C38.0793 43.0125 37.6711 42.7421 37.3313 42.4065C36.9915 42.0708 36.7267 41.6764 36.5523 41.2459C36.3779 40.8154 36.2971 40.3573 36.3148 39.8979Z" fill="#2AC7E3"/>
<defs>
<linearGradient id="paint0_linear_25833_204862" x1="22.3696" y1="8.49977" x2="59.1523" y2="69.9784" gradientUnits="userSpaceOnUse">
<stop stop-color="#4DBCD6"/>
<stop offset="1" stop-color="#4DBCD6" stop-opacity="0.24"/>
</linearGradient>
<linearGradient id="paint1_linear_25833_204862" x1="13.1272" y1="11.1365" x2="70.902" y2="64.6397" gradientUnits="userSpaceOnUse">
<stop stop-color="#226B7A"/>
<stop offset="1" stop-color="#121214"/>
</linearGradient>
</defs>
</svg>
