<svg width="80" height="80" viewBox="0 0 80 80" fill="none" xmlns="http://www.w3.org/2000/svg">
<path d="M64.0808 23.5317L42.8447 11.6853C41.1748 10.7538 39.12 10.743 37.4398 11.6571L15.8941 23.3783C14.1588 24.3223 13.0937 26.1048 13.1152 28.0288L13.3822 51.9179C13.4029 53.7809 14.4399 55.4949 16.1099 56.4263L37.3461 68.2729C39.0547 69.226 41.1629 69.2134 42.8595 68.2402L63.8413 56.2044C65.4764 55.2664 66.488 53.5731 66.5115 51.7357L66.8083 28.1613C66.8323 26.2551 65.7896 24.4848 64.0808 23.5317Z" fill="url(#paint0_linear_25833_204861)"/>
<path fill-rule="evenodd" clip-rule="evenodd" d="M70.83 19.5515L42.5153 3.21168C42.5152 3.21167 42.5153 3.21169 42.5153 3.21168C41.079 2.38295 39.3118 2.37341 37.8669 3.1866L9.13924 19.3537C9.13924 19.3537 9.13925 19.3537 9.13924 19.3537C7.647 20.1935 6.73176 21.7787 6.75023 23.489L7.10619 56.4395C7.12405 58.0956 8.01517 59.6199 9.45106 60.4484L37.766 76.7885C37.7661 76.7885 37.766 76.7885 37.766 76.7885C39.2353 77.6363 41.0485 77.6252 42.5078 76.7593L70.4834 60.1583C70.4835 60.1583 70.4834 60.1583 70.4834 60.1583C71.8891 59.3241 72.7586 57.8185 72.779 56.1847C72.779 56.1845 72.779 56.1848 72.779 56.1847L73.1747 23.6682C73.1953 21.9734 72.2992 20.3993 70.83 19.5515ZM75.3621 56.2161C75.3308 58.7505 73.9821 61.086 71.8018 62.3799L43.8261 78.981C41.564 80.3233 38.7531 80.3407 36.4749 79.0261L8.15996 62.686C5.93337 61.4012 4.55073 59.037 4.52301 56.4674L4.16705 23.5169C4.13839 20.8631 5.5585 18.4046 7.87225 17.1024L36.5999 0.935323C38.8401 -0.325521 41.5798 -0.310688 43.8064 0.974152L72.1212 17.314C74.3996 18.6287 75.7899 21.0704 75.7579 23.6997L75.3621 56.2161Z" fill="url(#paint1_linear_25833_204861)"/>
<path d="M40.7919 54.1947C40.4283 53.8732 40.049 53.5507 39.6867 53.1935C39.3971 53.4611 39.1257 53.712 38.8385 53.9617C35.2529 57.0527 31.557 58.3395 29.3661 57.0885C27.2467 55.8913 26.579 52.3546 27.4273 47.9052C27.5177 47.4229 27.6264 46.9406 27.7532 46.4583C27.3727 46.3463 27.0104 46.2433 26.6481 46.1223C22.1367 44.5824 19.1666 42.0817 19.1666 39.5798C19.1666 37.1686 21.9379 34.828 26.2664 33.3273C26.7511 33.166 27.2625 33.0059 27.7884 32.8625C27.6672 32.3978 27.5715 31.9509 27.4806 31.5186C26.5742 27.002 27.2079 23.3937 29.3455 22.1786C31.5727 20.8918 35.2686 22.2682 38.9803 25.5013C39.1972 25.6973 39.4153 25.9124 39.6504 26.1263C39.9945 25.8048 40.3205 25.4834 40.6646 25.1978C44.1788 22.1741 47.6735 20.9097 49.8111 22.1248C52.0383 23.3746 52.6914 27.2338 51.6954 32.0047C51.6408 32.3093 51.5742 32.5949 51.4966 32.9006C51.9498 33.026 52.4018 33.1683 52.8187 33.3116C57.238 34.8123 60.1002 37.1529 60.0638 39.6179C60.0638 42.1365 57.0029 44.6205 52.3085 46.157C52.0553 46.2287 51.802 46.3183 51.5475 46.3889C51.6566 46.7461 51.7281 47.1034 51.8008 47.4606C52.7423 52.0881 52.0177 55.8756 49.8268 57.1266C49.2514 57.4467 48.5897 57.6098 47.9183 57.597C45.9104 57.5936 43.3608 56.3718 40.7919 54.1947ZM44.3423 47.6376C43.3019 49.1333 42.1585 50.5657 40.9191 51.9257C41.2632 52.2617 41.6074 52.5697 41.9515 52.8552C44.9397 55.3918 47.6929 56.3393 48.9798 55.6069C49.3728 55.2941 49.6939 54.9116 49.9241 54.482C50.1543 54.0525 50.2889 53.5846 50.32 53.1061C50.5815 51.3331 50.5077 49.5317 50.1019 47.782C50.0474 47.4606 49.9807 47.1392 49.885 46.7999C48.0601 47.1946 46.2083 47.4745 44.3423 47.6376V47.6376ZM29.1637 48.2098C28.4221 52.0175 28.965 54.8554 30.2543 55.5889C30.7111 55.7654 31.2043 55.8468 31.6989 55.8274C32.1935 55.8081 32.6775 55.6884 33.1165 55.477C34.8244 54.8136 36.3798 53.8554 37.6994 52.6537C37.9709 52.4386 38.2241 52.1889 38.4968 51.9391C37.2301 50.5787 36.0564 49.1465 34.9826 47.651C33.1238 47.5075 31.2779 47.2456 29.4582 46.8671C29.3455 47.3341 29.2546 47.7798 29.1637 48.2098ZM39.7061 50.7106C40.5035 49.8348 41.2996 48.8706 42.0969 47.7988C41.2996 47.8347 40.4671 47.8526 39.6334 47.8526C38.7997 47.8526 38.0218 47.8347 37.2426 47.7988C38.0569 48.8515 38.8724 49.8348 39.7049 50.7106H39.7061ZM35.9012 33.2735C35.2129 34.2557 34.5428 35.2894 33.909 36.3824C33.2753 37.4542 32.6972 38.5439 32.1701 39.6302C32.7142 40.7019 33.2934 41.7916 33.9272 42.9003C34.5609 43.9721 35.2311 45.0282 35.9193 46.026C37.1141 46.0977 38.3647 46.138 39.6322 46.138C40.8997 46.138 42.1672 46.1022 43.3814 46.0137C44.0333 45.0315 44.7034 43.9766 45.3384 42.8869C45.9734 41.7972 46.5696 40.6896 47.0955 39.6179C46.5696 38.564 45.9722 37.4743 45.3384 36.3835C44.7047 35.2928 44.0346 34.2557 43.3644 33.2747C42.1527 33.1851 40.9009 33.1313 39.6334 33.1313C38.3659 33.1313 37.1154 33.184 35.9012 33.2735ZM29.9247 45.2253C31.1674 45.4876 32.4253 45.6847 33.6921 45.8155C33.2571 45.1368 32.8233 44.457 32.4064 43.7425C32.0077 43.0459 31.6091 42.3493 31.2468 41.6527C30.7221 42.8667 30.287 44.0662 29.9247 45.2253ZM46.8592 43.7246C46.4423 44.4391 46.0255 45.1178 45.6099 45.7796C46.8957 45.6307 48.1716 45.4161 49.4318 45.1368C49.0383 43.9308 48.5789 42.744 48.0552 41.5811C47.6747 42.2956 47.276 43.0101 46.8592 43.7246ZM26.8274 34.9702C23.1327 36.257 20.9055 38.1306 20.9055 39.5977C20.976 40.0697 21.1466 40.5242 21.4075 40.9351C21.6685 41.3459 22.0147 41.7052 22.4263 41.9921C23.8399 43.0907 25.461 43.9385 27.2079 44.4928C27.5339 44.6048 27.878 44.6899 28.2222 44.7975C28.7785 43.0401 29.4499 41.3156 30.2325 39.6335C29.4484 37.9802 28.7829 36.281 28.2404 34.5469C27.7516 34.6678 27.2806 34.8089 26.8274 34.9702ZM49.0513 39.5977C49.855 41.2584 50.5431 42.9649 51.1113 44.7067C51.3476 44.6351 51.5827 44.5634 51.7996 44.4917C55.8384 43.1702 58.3431 41.151 58.3565 39.5787C58.3565 38.1138 56.0383 36.2189 52.2528 34.9333C51.8723 34.8089 51.4566 34.6835 51.041 34.5581C50.4923 36.2747 49.8277 37.9579 49.0513 39.5977V39.5977ZM46.8422 35.4887C47.2591 36.2032 47.6577 36.9009 48.0189 37.5975C48.5221 36.4591 48.9573 35.296 49.3227 34.1135C48.0925 33.8372 46.847 33.6226 45.5917 33.4707C46.0267 34.1303 46.4423 34.7921 46.841 35.4887H46.8422ZM29.9429 34.0989C30.3064 35.2424 30.7402 36.4037 31.2468 37.5998C31.6103 36.9032 32.0077 36.2066 32.4064 35.51C32.8051 34.8134 33.2207 34.1348 33.6558 33.4729C32.3519 33.6308 31.1207 33.8447 29.9429 34.0989ZM41.8061 26.5059C41.4983 26.7736 41.1905 27.0591 40.8815 27.3458C42.1393 28.6892 43.2952 30.1111 44.3411 31.6015C46.1843 31.766 48.0123 32.0526 49.8111 32.4594C49.8838 32.1917 49.9322 31.9229 49.9928 31.6553C50.8411 27.5463 50.3188 24.4016 48.9422 23.6165C48.6401 23.4598 48.2973 23.3823 47.951 23.3925C46.4714 23.3858 44.2006 24.4509 41.8061 26.5025V26.5059ZM30.2143 23.6613C28.9286 24.3937 28.4209 27.3234 29.1819 31.1827C29.2728 31.5937 29.3637 32.0036 29.4715 32.4325C31.2726 32.0407 33.1 31.7601 34.9414 31.5926C35.9911 30.1003 37.1532 28.6782 38.4192 27.3369C38.2205 27.1398 38.0024 26.9617 37.8036 26.7825C35.2832 24.5797 32.8596 23.4172 31.277 23.4172C30.9051 23.4055 30.537 23.49 30.2143 23.6613ZM42.0594 31.4503C41.3124 30.4515 40.5066 29.4914 39.6455 28.5744C38.8312 29.449 38.0157 30.4144 37.222 31.4503C38.0193 31.4145 38.8155 31.3966 39.631 31.3966C40.4465 31.3966 41.2632 31.4111 42.0606 31.4503H42.0594ZM36.0102 39.6694C35.9932 39.2102 36.0745 38.7524 36.2493 38.3223C36.424 37.8922 36.689 37.4982 37.0288 37.1629C37.3687 36.8276 37.7768 36.5576 38.2297 36.3683C38.6827 36.179 39.1717 36.0742 39.6686 36.0599C40.6711 36.0915 41.6192 36.4891 42.305 37.1658C42.9908 37.8424 43.3583 38.7427 43.3269 39.6694C43.3592 40.5968 42.992 41.4981 42.3059 42.1755C41.6197 42.8529 40.6708 43.2509 39.6673 43.2822C39.1702 43.2679 38.681 43.163 38.2278 42.9735C37.7747 42.784 37.3665 42.5136 37.0267 42.1779C36.6869 41.8422 36.4222 41.4478 36.2477 41.0173C36.0733 40.5869 35.9926 40.1288 36.0102 39.6694V39.6694Z" fill="#667DFF"/>
<defs>
<linearGradient id="paint0_linear_25833_204861" x1="13.1272" y1="11.1365" x2="70.902" y2="64.6397" gradientUnits="userSpaceOnUse">
<stop stop-color="#3346B0"/>
<stop offset="1" stop-color="#121214"/>
</linearGradient>
<linearGradient id="paint1_linear_25833_204861" x1="22.5617" y1="8.5" x2="59.1621" y2="70.318" gradientUnits="userSpaceOnUse">
<stop stop-color="#526CFF"/>
<stop offset="1" stop-color="#4763FF" stop-opacity="0.25"/>
</linearGradient>
</defs>
</svg>
