<svg width="383" height="432" viewBox="0 0 383 432" fill="none" xmlns="http://www.w3.org/2000/svg">
<path fill-rule="evenodd" clip-rule="evenodd" d="M356.322 105.155L205.019 16.9224C197.278 12.4082 187.772 12.3569 179.985 16.7855L26.4752 104.086C18.4165 108.669 13.4003 117.373 13.5015 126.844L15.4036 304.772C15.5015 313.941 20.3833 322.311 28.1389 326.833L179.443 415.067C187.362 419.685 197.116 419.625 204.982 414.908L354.473 325.265C362.067 320.71 366.83 312.441 366.942 303.396L369.057 127.812C369.169 118.428 364.258 109.783 356.322 105.155ZM380.441 303.559C380.273 317.245 373.067 329.856 361.416 336.842L211.925 426.486C199.837 433.734 184.817 433.828 172.642 426.73L21.3388 338.495C9.44077 331.558 2.05249 318.792 1.90437 304.916L0.00227498 126.988C-0.150869 112.658 7.43764 99.3821 19.8014 92.3508L173.31 5.05061C185.282 -1.75777 199.922 -1.67767 211.819 5.26028L363.122 93.4929C375.298 100.592 382.727 113.777 382.555 127.975L380.441 303.559Z" fill="url(#paint0_linear_42_25)"/>
<g clip-path="url(#clip0_42_25)">
<path d="M271.988 140.493L190.982 93.7497L110 140.493V93.7497L190.994 47.0065L272 93.7497V140.493H271.988Z" fill="#A435F0"/>
<path d="M110 179.748H152.43V282.787C152.43 309.408 172.316 322.387 190.994 322.387C209.833 322.387 229.574 309.063 229.574 282.43V179.748H272V285.244C272 309.765 264.288 328.69 248.86 341.665C233.424 354.632 214.146 360.947 190.637 360.947C167.152 360.947 147.862 354.644 132.795 341.665C117.712 328.702 110 310.48 110 286.292V179.748Z" fill="black"/>
</g>
<defs>
<linearGradient id="paint0_linear_42_25" x1="100.953" y1="43.1989" x2="291.532" y2="378.064" gradientUnits="userSpaceOnUse">
<stop stop-color="#A435F0"/>
<stop offset="1"/>
</linearGradient>
<clipPath id="clip0_42_25">
<rect width="162" height="313.953" fill="white" transform="translate(110 47)"/>
</clipPath>
</defs>
</svg>
