<svg width="512" height="119" viewBox="0 0 512 119" fill="none" xmlns="http://www.w3.org/2000/svg">
<g clip-path="url(#clip0_31_7)">
<path d="M74.5313 1C75.5664 1.66112 76.0162 2.72072 76.7162 2.92572C101.376 10.1475 117.298 29.7686 119.819 54.3466C122.787 83.287 105.264 110.563 75.5843 118.258C75.1782 118.363 74.8937 118.937 74.7762 119.646C65.3124 120 55.6249 120 45.7386 119.673C42.1388 117.917 38.6457 116.671 35.3524 115.026C20.227 107.47 9.12562 96.2847 3.84611 79.8467C3.38408 78.4082 1.97122 77.275 1 76C1 65.9791 1 55.9582 1.33186 45.7261C3.12443 41.9361 4.2968 38.2047 6.09576 34.8049C13.8826 20.0886 24.8176 8.87498 41.2174 3.83355C42.6347 3.39786 43.7464 1.96803 45 1C54.6876 1 64.3751 1 74.5313 1ZM70.4834 31.0002C67.4885 31.0002 64.4885 30.8864 61.4995 31.0196C47.4802 31.6446 33.4609 32.2821 19.4488 33.0463C16.0446 33.232 14.0157 35.221 14.0114 38.805C13.9936 53.3317 13.8162 67.8637 14.2329 82.3785C14.2879 84.2944 17.2305 87.4694 19.1754 87.7559C27.456 88.9756 35.8627 89.8568 44.2265 89.8843C60.3042 89.9374 76.3851 89.3719 92.4619 88.9541C95.5662 88.8734 98.8117 88.751 101.697 87.7754C103.427 87.1904 105.747 84.9672 105.819 83.3894C106.455 69.4963 106.926 55.5794 106.763 41.6776C106.724 38.4027 106.976 33.3207 101.046 32.9831C91.1833 32.4217 81.3316 31.6711 70.4834 31.0002Z" fill="#18181B"/>
<path d="M513 71.5314C511.994 73.0233 510.599 73.8701 510.041 75.0973C504.264 87.8087 489.177 92.4087 479.258 90.6044C462.264 87.5135 454.217 74.315 453.923 61.7855C453.524 44.7433 464.418 31.7543 481.801 30.227C492.153 29.3175 503.459 34.0231 509.634 45.1664C510.494 46.718 511.532 48.1709 512.744 49.3347C513 56.3542 513 63.7085 513 71.5314ZM489.826 47.349C483.13 44.5304 477.572 45.7645 473.141 51.4329C470.041 55.3973 468.877 60.1482 470.567 64.9034C472.26 69.6682 475.331 73.8413 480.667 74.8969C487.906 76.3288 493.795 72.798 496.466 66.0594C499.181 59.2087 496.751 51.8796 489.826 47.349Z" fill="#18181B"/>
<path d="M251.089 33.9818C261.17 27.9998 270.473 29.32 279.407 35.8096C280.83 30.9981 282.908 30.2275 290.615 30.983C294.757 31.389 295.042 34.0806 295.029 37.3502C294.965 52.8463 295.484 68.3623 294.858 83.8333C294.28 98.1175 288.448 109.273 274.148 113.373C261.898 116.885 250.533 114.102 239.653 108.17C236.779 106.603 236.501 104.23 237.272 101.513C237.579 100.433 238.362 99.495 238.873 98.4649C242.335 91.4837 242.254 91.6174 249.254 95.5771C254.699 98.657 260.74 99.8123 266.911 98.8699C273.888 97.8044 277.545 93.1058 278.785 84.2204C272.109 89.954 264.458 90.636 256.674 88.6917C249.636 86.9339 243.772 82.9565 240.161 76.3766C231.934 61.3881 236.546 42.2511 251.089 33.9818ZM255.967 70.4965C261.722 76.144 269.145 76.5599 274.867 71.5555C279.539 67.4685 280.507 57.1504 276.75 51.4378C273.41 46.3604 264.619 44.0895 258.636 47.685C251.354 52.0615 249.757 61.7497 255.967 70.4965Z" fill="#18181B"/>
<path d="M435.881 34.9856C451.932 46.4084 452.572 71.5099 439.037 83.5156C430.41 91.1671 418.642 94.4613 405.366 85.4399C403.81 89.3793 394.398 92.0705 391.15 89.3586C390.421 88.7506 390.054 87.3338 390.051 86.2882C389.993 60.4837 390.005 34.679 390.005 8.43719C394.908 8.43719 399.619 8.43719 405.351 8.43719C405.351 16.9819 405.351 25.6191 405.351 35.4447C416.206 28.7617 425.935 28.6214 435.881 34.9856ZM426.87 48.4083C417.357 43.8173 410.155 46.0908 406.623 54.7999C404.242 60.6682 406.05 68.4041 410.675 72.1446C415.2 75.8036 422.121 76.2381 426.72 72.5991C432.873 67.7308 435.845 57.4038 426.87 48.4083Z" fill="#18181B"/>
<path d="M331.73 81.232C323.512 72.0478 321.856 61.4045 325.431 50.6347C328.965 39.9879 336.56 32.9388 348.394 30.8871C366.223 27.7959 381.384 39.9926 383.129 56.1644C385.354 76.7858 371.797 91.0806 352.898 90.9158C344.742 90.8446 337.569 87.7112 331.73 81.232ZM343.419 69.9522C343.774 70.3018 344.129 70.6523 344.486 71.001C349.289 75.6978 355.272 76.4132 361.05 72.9816C365.952 70.0696 368.549 62.954 366.992 56.7008C365.387 50.2562 360.598 46.24 354.564 45.9717C348.993 45.724 344.892 48.3869 342.204 52.7665C338.841 58.2445 339.205 63.9912 343.419 69.9522Z" fill="#18181B"/>
<path d="M232.048 48.1104C227.264 60.5018 222.56 72.5169 217.768 84.4969C216.517 87.6244 214.934 90.3905 210.709 90.0431C206.283 89.6791 201.355 91.4089 199.022 85.3252C192.756 68.9923 186.29 52.7355 179.772 36.5014C178.17 32.5122 179.202 30.973 183.455 30.9701C197.769 30.9603 195.868 30.3479 200 42.59C202.506 50.0168 204.979 57.4551 207.497 64.8778C207.585 65.139 208.002 65.2889 208.594 65.7418C212.075 56.0544 215.711 46.5507 218.859 36.8879C220.253 32.6091 222.31 30.7893 226.995 30.8955C238.901 31.1655 238.907 30.9609 234.337 42.2779C233.603 44.0974 232.843 45.9069 232.048 48.1104Z" fill="#18181B"/>
<path d="M134 39.8286C134.008 31.5589 134.008 31.5589 145.002 30.6864C145.002 26.9929 145.085 23.2266 144.978 19.4656C144.872 15.748 146.414 13.8374 150.261 13.9889C152.09 14.0609 153.926 14.0579 155.755 13.9896C159.591 13.8463 161.147 15.735 161.025 19.4654C160.907 23.0947 161 26.7309 161 31.0106C164.468 31.0106 167.582 30.8504 170.673 31.0474C175.542 31.3577 176.101 32.7119 176.053 40.5421C176.028 44.6751 174.171 46.2094 170.252 46.0257C167.437 45.8938 164.61 46 161.081 46C161.081 54.4549 160.708 62.7259 161.261 70.9347C161.489 74.3149 163.993 76.4797 168.348 75.1522C173.596 73.5528 179.499 78.551 178.663 83.9796C178.404 85.6615 175.913 87.4144 174.05 88.3652C164.361 93.312 151.862 90.8321 148.127 82.4757C146.566 78.9833 145.341 75.077 145.137 71.2956C144.692 63.0364 145 54.7368 145 46.647C140.712 44.8594 133.881 48.4463 134 39.8286Z" fill="#18181B"/>
<path d="M318 79.6505C317.695 85.0582 309.637 92.0223 305.152 90.7382C303.8 90.3513 302.149 87.9152 302.138 86.4069C301.954 61.0998 301.966 35.7907 302.143 10.4835C302.151 9.31946 303.979 7.34522 305.186 7.1506C311.442 6.14181 317.985 11.9687 317.992 18.2517C318.013 38.5651 318 58.8784 318 79.6505Z" fill="#18181B"/>
<path d="M45.0801 41.0159C60.1749 29.6565 81.1168 37.9652 84.0148 56.217C85.6875 66.7514 81.3161 76.3816 73.5267 81.1986C63.3497 87.4921 51.5979 85.9423 43.7609 79.0502C33.3027 69.8531 32.4187 51.4749 45.0801 41.0159Z" fill="#18181B"/>
</g>
<defs>
<clipPath id="clip0_31_7">
<rect width="512" height="119" fill="white"/>
</clipPath>
</defs>
</svg>
