<svg version="1.1" id="Layer_1" xmlns="http://www.w3.org/2000/svg" xmlns:xlink="http://www.w3.org/1999/xlink" x="0px" y="0px"
	 width="100%" viewBox="0 0 224 225" enable-background="new 0 0 224 225" xml:space="preserve">
<path fill="#FFFFFF" opacity="1.000000" stroke="none" 
	d="
M133.000000,1.000000 
	C163.593582,1.000000 194.187164,1.000000 225.000000,1.000000 
	C225.000000,31.353876 225.000000,61.708279 224.689423,92.340988 
	C222.687546,83.897827 217.007248,78.932426 208.716263,76.134216 
	C208.496704,76.049919 208.027786,76.086967 207.710022,75.974701 
	C206.946625,75.874542 206.500977,75.886658 205.596802,75.774384 
	C187.457535,75.663155 169.776810,75.676323 151.860992,75.531296 
	C151.444260,75.321198 151.262619,75.269302 151.050262,74.729279 
	C151.015060,57.940262 151.018707,41.639351 151.003448,25.338457 
	C150.991653,12.737733 145.297806,5.314507 133.013580,1.660002 
	C132.982208,1.441376 133.000000,1.000000 133.000000,1.000000 
z"/>
<path fill="#FFFFFE" opacity="1.000000" stroke="none" 
	d="
M225.000000,135.000000 
	C225.000000,165.260254 225.000000,195.520493 225.000000,226.000000 
	C194.979462,226.000000 164.958389,226.000000 134.618576,225.673065 
	C144.536057,222.215668 150.825714,214.858978 150.933685,204.875183 
	C151.120712,187.578629 150.913666,170.277802 150.950745,152.728821 
	C151.042435,152.304596 151.055283,152.130341 151.314270,151.982758 
	C151.560410,152.009445 152.037872,151.878281 152.269623,151.937256 
	C152.501358,151.996246 152.973328,151.918945 153.437042,152.004166 
	C170.945175,152.020935 187.989594,151.952484 205.265015,151.917847 
	C205.496033,151.951675 205.945724,151.825882 206.326324,151.860077 
	C216.646072,150.422348 221.463852,143.405060 225.000000,135.000000 
z"/>
<path fill="#FFFFFF" opacity="1.000000" stroke="none" 
	d="
M1.000000,92.000000 
	C1.000000,61.739349 1.000000,31.478697 1.000000,1.000000 
	C31.353880,1.000000 61.708282,1.000000 92.512764,1.203502 
	C92.962845,1.407004 92.934181,1.814693 92.559540,1.882538 
	C80.958427,4.936340 74.725578,11.667593 74.477020,22.898697 
	C74.099632,39.950848 74.490776,57.020004 74.385559,74.364922 
	C74.142311,74.855362 74.068947,75.062813 73.527542,75.277679 
	C56.777302,75.285278 40.495033,75.253540 24.212963,75.297058 
	C13.659226,75.325264 6.193969,80.074425 2.194681,89.990746 
	C1.906647,90.704941 1.403260,91.332275 1.000000,92.000000 
z"/>
<path fill="#FFFFFE" opacity="1.000000" stroke="none" 
	d="
M91.000000,226.000000 
	C61.073086,226.000000 31.146173,226.000000 1.000000,226.000000 
	C1.000000,196.312805 1.000000,166.625061 1.325910,136.603210 
	C6.602160,147.948364 12.743150,152.076965 25.292189,152.073486 
	C41.544044,152.068970 57.795895,152.025452 74.086243,152.465912 
	C74.149292,169.331406 74.019272,185.732498 74.313736,202.125946 
	C74.382080,205.931213 75.897461,209.710495 76.748383,213.644501 
	C76.749763,213.787277 76.936981,214.002899 76.951996,214.307098 
	C77.235748,214.898804 77.504478,215.186310 77.856789,215.791962 
	C82.293579,219.406754 86.646790,222.703384 91.000000,226.000000 
z"/>
<path fill="#C5D109" opacity="1.000000" stroke="none" 
	d="
M74.047745,151.998718 
	C57.795895,152.025452 41.544044,152.068970 25.292189,152.073486 
	C12.743150,152.076965 6.602160,147.948364 1.325910,136.134552 
	C1.000000,121.645775 1.000000,107.291542 1.000000,92.468658 
	C1.403260,91.332275 1.906647,90.704941 2.194681,89.990746 
	C6.193969,80.074425 13.659226,75.325264 24.212963,75.297058 
	C40.495033,75.253540 56.777302,75.285278 73.578140,75.260796 
	C74.096794,75.236496 74.157707,75.150322 74.118477,75.603714 
	C74.122871,84.347984 74.166496,92.638863 73.998672,101.217087 
	C64.336639,106.581116 55.435371,112.312088 50.733894,122.521362 
	C50.147606,123.794495 50.853622,125.662743 50.960842,127.255234 
	C52.306404,126.443642 54.280296,125.957489 54.896355,124.768059 
	C59.145138,116.564896 65.970802,111.340843 74.080490,107.921143 
	C74.165222,122.847824 74.195831,137.261902 74.180679,151.756042 
	C74.134911,151.836136 74.047745,151.998718 74.047745,151.998718 
z"/>
<path fill="#FDEB21" opacity="1.000000" stroke="none" 
	d="
M152.037872,151.878281 
	C152.037872,151.878281 151.560410,152.009445 151.203583,151.955322 
	C150.846756,151.901215 150.702606,151.724609 150.742340,151.279449 
	C150.802094,132.275742 150.822113,113.717201 151.218750,95.063965 
	C161.235153,97.351326 170.874939,99.733391 180.770782,102.178726 
	C182.990707,98.623924 182.843994,97.529877 178.210114,96.284515 
	C169.137177,93.846130 159.951431,91.827515 150.828552,89.197815 
	C150.859619,84.186058 150.874527,79.611656 150.916992,75.103897 
	C150.944550,75.170555 151.080994,75.217400 151.080994,75.217400 
	C151.262619,75.269302 151.444260,75.321198 152.016312,75.855606 
	C153.169571,76.558678 153.931992,76.969910 154.695343,76.971710 
	C170.612030,77.009178 186.528915,77.024063 202.445358,76.952934 
	C203.650238,76.947556 204.852081,76.266006 206.055344,75.898773 
	C206.500977,75.886658 206.946625,75.874542 207.777649,76.128342 
	C208.163055,76.394257 208.580521,76.542877 208.580521,76.542877 
	C208.580521,76.542877 208.935822,76.218506 208.935822,76.218506 
	C217.007248,78.932426 222.687546,83.897827 224.689423,92.809647 
	C225.000000,106.687561 225.000000,120.375122 225.000000,134.531342 
	C221.463852,143.405060 216.646072,150.422348 206.236938,151.716675 
	C205.522629,151.654053 205.278305,151.769043 205.033997,151.884033 
	C187.989594,151.952484 170.945175,152.020935 153.359070,151.846863 
	C152.557526,151.695648 152.297699,151.786972 152.037872,151.878281 
z"/>
<path fill="#EA660F" opacity="1.000000" stroke="none" 
	d="
M76.936981,214.002899 
	C76.936981,214.002899 76.749763,213.787277 76.795700,213.188171 
	C76.543427,210.137146 75.995796,207.686127 75.986916,205.233170 
	C75.922592,187.450958 75.966980,169.668381 76.440201,151.806534 
	C81.718025,151.677643 86.532616,151.628113 91.378311,151.680634 
	C91.409409,151.782684 91.263260,151.938156 91.198074,152.326660 
	C92.072647,155.144211 93.012405,157.573257 94.082428,160.352142 
	C94.499550,161.481003 94.807472,162.252960 95.070198,163.040039 
	C100.973259,180.724503 109.670219,196.899033 121.445404,211.361191 
	C122.352203,212.474899 124.279037,212.758087 125.731743,213.427322 
	C125.603722,211.718307 125.614182,209.981812 125.283104,208.313095 
	C125.140190,207.592712 124.268539,207.029526 123.766182,206.365982 
	C111.810745,190.574768 102.588913,173.429916 98.151413,153.880920 
	C98.609917,153.120468 98.799721,152.530609 99.448624,151.833405 
	C116.608719,151.784470 133.309708,151.842880 150.092789,152.125458 
	C150.331192,152.643585 150.563522,152.853302 150.871918,152.978775 
	C150.913666,170.277802 151.120712,187.578629 150.933685,204.875183 
	C150.825714,214.858978 144.536057,222.215668 134.149918,225.673065 
	C133.250000,226.000000 132.500000,226.000000 131.086823,225.696442 
	C118.500397,225.276367 106.577232,225.146896 94.653717,225.084564 
	C94.104088,225.081696 93.551308,225.681107 93.000000,226.000000 
	C92.555557,226.000000 92.111107,226.000000 91.333328,226.000000 
	C86.646790,222.703384 82.293579,219.406754 77.833275,215.492905 
	C77.463112,214.584763 77.200043,214.293839 76.936981,214.002899 
z"/>
<path fill="#BBD8E9" opacity="1.000000" stroke="none" 
	d="
M92.934181,1.814693 
	C92.934181,1.814693 92.962845,1.407004 92.981422,1.203502 
	C106.020897,1.000000 119.041786,1.000000 132.531342,1.000000 
	C133.000000,1.000000 132.982208,1.441376 132.545715,1.722874 
	C119.050888,1.941146 105.992531,1.877919 92.934181,1.814693 
z"/>
<path fill="#EC732A" opacity="1.000000" stroke="none" 
	d="
M93.468658,226.000000 
	C93.551308,225.681107 94.104088,225.081696 94.653717,225.084564 
	C106.577232,225.146896 118.500397,225.276367 130.711823,225.696442 
	C118.645775,226.000000 106.291542,226.000000 93.468658,226.000000 
z"/>
<path fill="#038FC2" opacity="1.000000" stroke="none" 
	d="
M92.559540,1.882538 
	C105.992531,1.877919 119.050888,1.941146 132.577103,1.941500 
	C145.297806,5.314507 150.991653,12.737733 151.003448,25.338457 
	C151.018707,41.639351 151.015060,57.940262 151.050262,74.729279 
	C151.080994,75.217400 150.944550,75.170555 150.456299,75.091797 
	C131.957962,75.017387 113.947868,75.021751 95.917305,74.625427 
	C98.381844,66.511360 100.989571,58.833736 103.256111,51.056679 
	C103.754440,49.346752 103.040695,47.283577 102.885109,45.383072 
	C101.503563,46.643116 99.423843,47.648750 98.856567,49.205509 
	C95.743988,57.747246 93.001976,66.424011 89.656937,75.046707 
	C84.474564,75.017479 79.767982,74.995972 75.050323,74.960129 
	C75.039246,74.945793 75.041573,74.907379 75.007706,74.743378 
	C74.911324,74.348824 74.771866,74.183014 74.555458,74.081940 
	C74.490776,57.020004 74.099632,39.950848 74.477020,22.898697 
	C74.725578,11.667593 80.958427,4.936340 92.559540,1.882538 
z"/>
<path fill="#FDEA00" opacity="1.000000" stroke="none" 
	d="
M205.596802,75.774376 
	C204.852081,76.266006 203.650238,76.947556 202.445358,76.952934 
	C186.528915,77.024063 170.612030,77.009178 154.695343,76.971710 
	C153.931992,76.969910 153.169571,76.558678 152.251404,76.013802 
	C169.776810,75.676323 187.457535,75.663155 205.596802,75.774376 
z"/>
<path fill="#FDEA00" opacity="1.000000" stroke="none" 
	d="
M208.716263,76.134216 
	C208.935822,76.218506 208.580521,76.542877 208.580521,76.542877 
	C208.580521,76.542877 208.163055,76.394257 208.095428,76.240616 
	C208.027786,76.086967 208.496704,76.049919 208.716263,76.134216 
z"/>
<path fill="#FDEA00" opacity="1.000000" stroke="none" 
	d="
M152.269623,151.937256 
	C152.297699,151.786972 152.557526,151.695648 152.895340,151.761627 
	C152.973328,151.918945 152.501358,151.996246 152.269623,151.937256 
z"/>
<path fill="#FDEA00" opacity="1.000000" stroke="none" 
	d="
M205.265015,151.917847 
	C205.278305,151.769043 205.522629,151.654053 205.856339,151.682465 
	C205.945724,151.825882 205.496033,151.951675 205.265015,151.917847 
z"/>
<path fill="#ED6201" opacity="1.000000" stroke="none" 
	d="
M150.950745,152.728821 
	C150.563522,152.853302 150.331192,152.643585 150.250031,152.020065 
	C150.325180,151.690491 150.702606,151.724609 150.702606,151.724609 
	C150.702606,151.724609 150.846756,151.901215 150.957458,151.928650 
	C151.055283,152.130341 151.042435,152.304596 150.950745,152.728821 
z"/>
<path fill="#23B5C9" opacity="1.000000" stroke="none" 
	d="
M74.385559,74.364922 
	C74.771866,74.183014 74.911324,74.348824 74.783905,74.794708 
	C74.593987,75.010048 74.157707,75.150322 74.157707,75.150322 
	C74.157707,75.150322 74.096794,75.236496 74.046188,75.253372 
	C74.068947,75.062813 74.142311,74.855362 74.385559,74.364922 
z"/>
<path fill="#ED792F" opacity="1.000000" stroke="none" 
	d="
M75.976974,151.885910 
	C75.966980,169.668381 75.922592,187.450958 75.986916,205.233170 
	C75.995796,207.686127 76.543427,210.137146 76.794327,213.045395 
	C75.897461,209.710495 74.382080,205.931213 74.313736,202.125946 
	C74.019272,185.732498 74.149292,169.331406 74.086243,152.465912 
	C74.047745,151.998718 74.134911,151.836136 74.477478,151.743225 
	C75.205681,151.728851 75.591331,151.807373 75.976974,151.885910 
z"/>
<path fill="#ED792F" opacity="1.000000" stroke="none" 
	d="
M76.951996,214.307098 
	C77.200043,214.293839 77.463112,214.584763 77.749695,215.174744 
	C77.504478,215.186310 77.235748,214.898804 76.951996,214.307098 
z"/>
<path fill="#F8FAF8" opacity="1.000000" stroke="none" 
	d="
M90.132721,75.054413 
	C93.001976,66.424011 95.743988,57.747246 98.856567,49.205509 
	C99.423843,47.648750 101.503563,46.643116 102.885109,45.383072 
	C103.040695,47.283577 103.754440,49.346752 103.256111,51.056679 
	C100.989571,58.833736 98.381844,66.511360 95.702911,74.943268 
	C94.649719,81.420990 93.790451,87.180206 92.773315,92.998497 
	C92.798470,93.093231 92.981476,93.128883 93.563980,93.238007 
	C94.932053,93.095894 95.908401,92.910103 96.868095,92.660347 
	C114.647224,88.033478 132.634125,87.133606 150.812378,89.635155 
	C159.951431,91.827515 169.137177,93.846130 178.210114,96.284515 
	C182.843994,97.529877 182.990707,98.623924 180.770782,102.178726 
	C170.874939,99.733391 161.235153,97.351326 150.826721,94.936569 
	C130.354431,91.848953 111.083801,93.785423 91.959885,99.288315 
	C91.138145,117.449913 91.819893,134.807831 97.146042,152.028610 
	C97.349022,152.916519 97.615868,153.484024 97.882713,154.051529 
	C102.588913,173.429916 111.810745,190.574768 123.766182,206.365982 
	C124.268539,207.029526 125.140190,207.592712 125.283104,208.313095 
	C125.614182,209.981812 125.603722,211.718307 125.731743,213.427322 
	C124.279037,212.758087 122.352203,212.474899 121.445404,211.361191 
	C109.670219,196.899033 100.973259,180.724503 95.070198,163.040039 
	C94.807472,162.252960 94.499550,161.481003 94.092377,159.976288 
	C93.069130,156.813110 92.166199,154.375641 91.263260,151.938156 
	C91.263260,151.938156 91.409409,151.782684 91.360092,151.281998 
	C87.700653,134.713425 85.916046,118.468178 86.906258,100.866280 
	C82.151039,103.281670 78.088707,105.345108 74.026375,107.408539 
	C65.970802,111.340843 59.145138,116.564896 54.896355,124.768059 
	C54.280296,125.957489 52.306404,126.443642 50.960842,127.255234 
	C50.853622,125.662743 50.147606,123.794495 50.733894,122.521362 
	C55.435371,112.312088 64.336639,106.581116 74.223328,101.178680 
	C74.659439,100.852928 75.042542,100.605507 75.378510,100.563400 
	C78.736626,99.231728 81.833794,98.086792 84.742134,96.577896 
	C85.830292,96.013351 87.026009,94.701668 87.236160,93.558479 
	C88.364502,87.420387 89.197639,81.228027 90.132721,75.054413 
z"/>
<path fill="#1BB6C4" opacity="1.000000" stroke="none" 
	d="
M74.080490,107.921143 
	C78.088707,105.345108 82.151039,103.281670 86.906258,100.866280 
	C85.916046,118.468178 87.700653,134.713425 91.328995,151.179947 
	C86.532616,151.628113 81.718025,151.677643 76.440201,151.806534 
	C75.591331,151.807373 75.205681,151.728851 74.523239,151.663147 
	C74.195831,137.261902 74.165222,122.847824 74.080490,107.921143 
z"/>
<path fill="#2BB8B8" opacity="1.000000" stroke="none" 
	d="
M75.042542,100.605507 
	C75.042542,100.605507 74.659439,100.852928 74.434784,100.891342 
	C74.166496,92.638863 74.122871,84.347984 74.118477,75.603714 
	C74.157707,75.150322 74.593987,75.010048 74.817780,74.958710 
	C75.041573,74.907379 75.039246,74.945793 75.191193,75.353493 
	C75.242943,84.042633 75.142746,92.324066 75.042542,100.605507 
z"/>
<path fill="#16B5C6" opacity="1.000000" stroke="none" 
	d="
M97.209900,151.708191 
	C91.819893,134.807831 91.138145,117.449913 91.959885,99.288315 
	C111.083801,93.785423 130.354431,91.848953 150.450089,95.031258 
	C150.822113,113.717201 150.802094,132.275742 150.742340,151.279449 
	C150.702606,151.724609 150.325180,151.690491 150.167938,151.795883 
	C133.309708,151.842880 116.608719,151.784470 99.161842,151.739594 
	C98.013931,151.738159 97.611916,151.723175 97.209900,151.708191 
z"/>
<path fill="#16B5C7" opacity="1.000000" stroke="none" 
	d="
M92.931183,92.939415 
	C93.790451,87.180206 94.649719,81.420990 95.723373,75.343948 
	C113.947868,75.021751 131.957962,75.017387 150.428741,75.025139 
	C150.874527,79.611656 150.859619,84.186058 150.828552,89.197815 
	C132.634125,87.133606 114.647224,88.033478 96.868095,92.660347 
	C95.908401,92.910103 94.932053,93.095894 93.506180,93.181168 
	C93.048897,93.050873 92.931183,92.939415 92.931183,92.939415 
z"/>
<path fill="#ED792F" opacity="1.000000" stroke="none" 
	d="
M91.198074,152.326660 
	C92.166199,154.375641 93.069130,156.813110 93.962120,159.626450 
	C93.012405,157.573257 92.072647,155.144211 91.198074,152.326660 
z"/>
<path fill="#ED6201" opacity="1.000000" stroke="none" 
	d="
M97.146042,152.028595 
	C97.611916,151.723175 98.013931,151.738159 98.702728,151.846939 
	C98.799721,152.530609 98.609917,153.120468 98.151413,153.880920 
	C97.615868,153.484024 97.349022,152.916519 97.146042,152.028595 
z"/>
<path fill="#23B5C9" opacity="1.000000" stroke="none" 
	d="
M75.378510,100.563400 
	C75.142746,92.324066 75.242943,84.042633 75.202271,75.367828 
	C79.767982,74.995972 84.474564,75.017479 89.656937,75.046707 
	C89.197639,81.228027 88.364502,87.420387 87.236160,93.558479 
	C87.026009,94.701668 85.830292,96.013351 84.742134,96.577896 
	C81.833794,98.086792 78.736626,99.231728 75.378510,100.563400 
z"/>
<path fill="#16B5C7" opacity="1.000000" stroke="none" 
	d="
M93.106689,93.107704 
	C92.981476,93.128883 92.798470,93.093231 92.773315,92.998497 
	C92.931183,92.939415 93.048897,93.050873 93.106689,93.107704 
z"/>
</svg>