<svg width="226" height="52" viewBox="0 0 226 52" fill="none" xmlns="http://www.w3.org/2000/svg">
<path d="M118.28 17.5543C116.75 18.4842 115.689 19.4096 114.627 20.3351C114.888 20.8132 115.149 21.2914 115.41 21.7695C119.818 21.7695 124.226 21.7695 129.16 21.7695C129.32 24.6338 129.453 27.0103 129.629 30.1445C125.602 30.1445 122.008 29.9833 118.444 30.2404C117.341 30.32 116.32 31.5371 115.261 32.2333C116.296 32.9145 117.306 34.1364 118.369 34.1839C123.138 34.3974 127.922 34.2769 132.952 34.2769C132.952 37.2656 132.952 39.6895 132.952 42.4202C124.372 42.4202 115.985 42.4202 107.292 42.4202C107.292 31.4678 107.292 20.7394 107.292 9.59972C115.624 9.59972 123.995 9.59972 132.793 9.59972C132.793 11.8974 132.793 14.2774 132.793 17.5499C128.193 17.5499 123.47 17.5499 118.28 17.5543Z" fill="#259AC7"/>
<path d="M197.665 24.3647C197.293 36.0458 190.628 42.6564 179.554 42.756C175.593 42.7916 171.631 42.7617 167.236 42.7617C167.236 31.6059 167.236 20.7694 167.236 9.68544C173.032 9.68544 179.047 8.92564 184.779 9.87434C192.242 11.1096 196.3 16.5506 197.665 24.3647ZM178.431 34.258C182.73 34.6925 186.934 33.8498 188.327 29.498C189.156 26.9096 188.687 23.0486 187.226 20.7691C184.452 16.4413 179.693 17.0095 175.056 17.7389C175.056 22.4622 174.894 26.787 175.168 31.084C175.239 32.1907 176.684 33.2097 178.431 34.258Z" fill="#16C0CD"/>
<path d="M73.4297 21.842C78.9622 7.79386 92.3695 4.60494 102.956 14.9511C101.079 16.5597 99.2339 18.1408 97.4225 19.6931C89.8985 16.2864 85.7004 16.6702 82.8127 21.0375C80.2355 24.9352 80.8396 28.6888 83.8008 32.0114C86.8612 35.4453 91.4132 35.5121 96.7388 31.7969C93.9336 31.4486 91.9758 31.2055 89.623 30.9133C89.623 28.5764 89.623 26.2083 89.623 23.4873C94.2362 23.4873 98.8074 23.4873 104.065 23.4873C103.455 28.5538 106.614 34.2601 102.252 38.459C97.2482 43.2756 90.7195 44.355 84.0886 41.8956C77.605 39.4909 73.9075 34.5914 73.1015 27.7007C72.8922 25.9113 73.226 24.0583 73.4297 21.842Z" fill="#2298C5"/>
<path d="M162.953 11.6217C161.05 17.2579 158.99 18.2976 154.247 16.4112C153.636 16.1682 152.917 15.7695 152.357 15.902C150.26 16.3976 148.209 17.084 146.14 17.6989C147.651 18.9415 149.009 20.483 150.71 21.3521C152.901 22.4717 155.497 22.7985 157.693 23.9116C165.266 27.7503 165.794 36.1934 158.887 41.1912C152.536 45.7863 142.262 44.7541 134.981 38.4468C136.985 36.5554 138.954 34.6956 140.413 33.3183C144.301 34.388 147.535 35.5214 150.865 36.0511C151.911 36.2176 153.216 34.7625 154.402 34.0495C153.601 32.9373 153.036 31.3211 151.952 30.8141C149.416 29.6277 146.597 29.0639 143.954 28.0831C139.504 26.4317 136.665 23.4606 136.856 18.4103C137.046 13.3954 140.15 10.5655 144.546 9.0652C150.922 6.88895 156.99 7.91051 162.953 11.6217Z" fill="#2399C6"/>
<path d="M201.437 9.20199C209.549 9.18396 217.204 9.18396 225.319 9.18396C225.319 11.9083 225.319 14.4109 225.319 17.5696C220.587 17.5696 215.955 17.3832 211.355 17.683C209.973 17.7731 208.679 19.217 207.345 20.0407C207.602 20.6644 207.859 21.2882 208.116 21.9119C212.519 21.9119 216.923 21.9119 221.56 21.9119C221.56 24.7849 221.56 27.0501 221.56 29.9718C217.137 29.9718 212.756 29.9718 207.802 29.9718C207.802 34.5072 207.802 38.4135 207.802 42.5798C204.795 42.5798 202.373 42.5798 199.293 42.5798C199.293 31.918 199.27 21.3264 199.365 10.7357C199.37 10.2257 200.417 9.72505 201.437 9.20199Z" fill="#1CC2CF"/>
<path d="M61.1371 36.804C61.1371 27.5653 61.1371 18.7988 61.1371 9.6144C63.8423 9.6144 66.2178 9.6144 69.0357 9.6144C69.0357 20.3138 69.0357 31.1217 69.0357 42.2387C66.5161 42.2387 64.1235 42.2387 61.379 42.2387C61.2933 40.4824 61.2152 38.8793 61.1371 36.804Z" fill="#18C0CD"/>
<g clip-path="url(#clip0_34_118)">
<path d="M16.7187 35.1286C13.0493 35.1348 9.37992 35.1448 5.71053 35.1459C2.87717 35.1467 1.49064 34.1925 0.299354 31.4622C0.225769 28.1137 0.225769 24.7963 0.225769 21.3705C0.316818 21.1079 0.430474 20.9629 0.495507 20.7979C1.39848 18.5061 3.084 17.4085 5.46686 17.402C9.14307 17.3919 12.8193 17.3993 16.6127 17.3936C16.7298 17.388 16.7435 17.3681 16.7347 17.4729C16.7357 19.4938 16.7455 21.4099 16.7076 23.3924C14.5261 24.6321 12.5163 25.9566 11.4548 28.316C11.3225 28.6103 11.4819 29.0421 11.5061 29.4101C11.8099 29.2225 12.2555 29.1102 12.3946 28.8353C13.3539 26.9394 14.8951 25.7321 16.7261 24.9418C16.7452 28.3915 16.7521 31.7227 16.7487 35.0725C16.7384 35.091 16.7187 35.1286 16.7187 35.1286Z" fill="#C5D109"/>
<path d="M34.3275 35.1008C34.3275 35.1008 34.2197 35.1311 34.1392 35.1186C34.0586 35.1061 34.026 35.0652 34.035 34.9624C34.0485 30.5704 34.053 26.2813 34.1426 21.9703C36.4041 22.499 38.5806 23.0495 40.8149 23.6146C41.3161 22.7931 41.283 22.5402 40.2368 22.2524C38.1883 21.6889 36.1143 21.2224 34.0545 20.6146C34.0615 19.4563 34.0649 18.3991 34.0744 17.3573C34.0807 17.3728 34.1115 17.3836 34.1115 17.3836C34.1525 17.3956 34.1935 17.4076 34.3227 17.5311C34.583 17.6936 34.7552 17.7886 34.9275 17.789C38.5212 17.7977 42.115 17.8011 45.7087 17.7847C45.9807 17.7834 46.2521 17.6259 46.5237 17.5411C46.6244 17.5383 46.725 17.5355 46.9126 17.5941C46.9996 17.6556 47.0939 17.6899 47.0939 17.6899L47.1741 17.6149C48.9965 18.2422 50.279 19.3897 50.731 21.4493C50.8011 24.6567 50.8011 27.82 50.8011 31.0917C50.0027 33.1425 48.9149 34.7643 46.5647 35.0634C46.4035 35.0489 46.3483 35.0755 46.2931 35.1021C42.4448 35.1179 38.5965 35.1337 34.6258 35.0935C34.4449 35.0585 34.3862 35.0797 34.3275 35.1008Z" fill="#FDEB21"/>
<path d="M17.3711 49.4584C17.3711 49.4584 17.3288 49.4086 17.3392 49.2702C17.2822 48.565 17.1586 47.9986 17.1566 47.4317C17.142 43.322 17.1521 39.2122 17.2589 35.0842C18.4505 35.0544 19.5376 35.0429 20.6317 35.0551C20.6387 35.0787 20.6057 35.1146 20.591 35.2044C20.7884 35.8556 21.0006 36.4169 21.2422 37.0592C21.3364 37.3201 21.4059 37.4985 21.4652 37.6804C22.798 41.7674 24.7617 45.5056 27.4203 48.8479C27.625 49.1053 28.0601 49.1708 28.3881 49.3254C28.3592 48.9305 28.3615 48.5291 28.2868 48.1435C28.2545 47.977 28.0577 47.8468 27.9443 47.6935C25.245 44.0439 23.1628 40.0816 22.1609 35.5636C22.2644 35.3878 22.3073 35.2515 22.4538 35.0904C26.3283 35.0791 30.0991 35.0926 33.8884 35.1579C33.9422 35.2776 33.9947 35.3261 34.0643 35.3551C34.0737 39.3531 34.1205 43.3515 34.0782 47.3489C34.0539 49.6563 32.6338 51.3565 30.2888 52.1556C30.0856 52.2311 29.9162 52.2311 29.5972 52.161C26.7554 52.0639 24.0633 52.0339 21.3712 52.0195C21.2471 52.0189 21.1223 52.1574 20.9978 52.2311C20.8975 52.2311 20.7971 52.2311 20.6215 52.2311C19.5634 51.4692 18.5805 50.7073 17.5734 49.8028C17.4899 49.5929 17.4305 49.5257 17.3711 49.4584Z" fill="#EA660F"/>
<path d="M20.9829 0.419394C20.9829 0.419394 20.9894 0.325173 20.9936 0.278141C23.9377 0.23111 26.8776 0.23111 29.9233 0.23111C30.0291 0.23111 30.0251 0.333117 29.9265 0.398174C26.8796 0.448619 23.9313 0.434006 20.9829 0.419394Z" fill="#BBD8E9"/>
<path d="M20.8984 0.435076C23.9313 0.434009 26.8797 0.448621 29.9336 0.448703C32.8058 1.22824 34.0913 2.94383 34.094 5.856C34.0974 9.62332 34.0966 13.3906 34.1046 17.2708C34.1115 17.3836 34.0807 17.3728 33.9705 17.3546C29.7939 17.3374 25.7275 17.3384 21.6565 17.2468C22.2129 15.3715 22.8017 13.5971 23.3135 11.7998C23.426 11.4046 23.2648 10.9278 23.2297 10.4885C22.9178 10.7797 22.4482 11.0122 22.3201 11.3719C21.6174 13.346 20.9983 15.3513 20.243 17.3441C19.0729 17.3374 18.0103 17.3324 16.9451 17.3241C16.9426 17.3208 16.9431 17.3119 16.9355 17.274C16.9137 17.1828 16.8822 17.1445 16.8334 17.1212C16.8188 13.178 16.7304 9.23309 16.8156 5.29214C16.8718 2.69651 18.279 1.14084 20.8984 0.435076Z" fill="#038FC2"/>
<path d="M46.4202 17.5123C46.2521 17.6259 45.9807 17.7834 45.7087 17.7847C42.115 17.8011 38.5212 17.7977 34.9275 17.789C34.7552 17.7886 34.583 17.6936 34.3757 17.5676C38.3327 17.4896 42.3247 17.4866 46.4202 17.5123Z" fill="#FDEA00"/>
<path d="M34.3799 35.1144C34.3862 35.0797 34.4449 35.0586 34.5212 35.0738C34.5388 35.1102 34.4322 35.128 34.3799 35.1144Z" fill="#FDEA00"/>
<path d="M34.0821 36.2973C33.9947 36.3261 33.9422 36.2776 33.9239 36.1335C33.9409 36.0574 34.0261 36.0652 34.0261 36.0652C34.0261 36.0652 34.0586 36.1061 34.0836 36.1124C34.1057 36.159 34.1028 36.1993 34.0821 36.2973Z" fill="#ED6201"/>
<path d="M16.795 17.1866C16.8822 17.1445 16.9137 17.1828 16.8849 17.2859C16.8421 17.3357 16.7436 17.3681 16.7436 17.3681C16.7436 17.3681 16.7298 17.388 16.7184 17.3919C16.7235 17.3478 16.7401 17.2999 16.795 17.1866Z" fill="#23B5C9"/>
<path d="M20.3504 17.3459C20.9983 15.3513 21.6174 13.346 22.3201 11.3719C22.4482 11.0122 22.9178 10.7797 23.2297 10.4885C23.2648 10.9278 23.426 11.4046 23.3135 11.7998C22.8017 13.5971 22.2129 15.3715 21.6081 17.3202C21.3703 18.8173 21.1763 20.1483 20.9466 21.493C20.9523 21.5149 20.9936 21.5231 21.1252 21.5483C21.434 21.5155 21.6545 21.4726 21.8712 21.4148C25.8854 20.3455 29.9465 20.1375 34.0509 20.7157C36.1143 21.2224 38.1883 21.6889 40.2368 22.2524C41.283 22.5402 41.3162 22.7931 40.8149 23.6146C38.5806 23.0495 36.4041 22.499 34.0541 21.9409C29.4318 21.2273 25.0808 21.6749 20.763 22.9466C20.5774 27.144 20.7314 31.1556 21.9339 35.1355C21.9798 35.3407 22.04 35.4719 22.1003 35.603C23.1628 40.0816 25.245 44.0439 27.9443 47.6935C28.0577 47.8468 28.2545 47.977 28.2868 48.1435C28.3615 48.5291 28.3592 48.9305 28.3881 49.3254C28.0601 49.1708 27.625 49.1053 27.4203 48.8479C24.7617 45.5056 22.798 41.7674 21.4652 37.6804C21.4059 37.4985 21.3364 37.3201 21.2445 36.9723C21.0134 36.2413 20.8096 35.6779 20.6057 35.1146C20.6057 35.1146 20.6387 35.0787 20.6276 34.9629C19.8013 31.1338 19.3984 27.3793 19.622 23.3113C18.5483 23.8695 17.6311 24.3464 16.7139 24.8233C14.8951 25.7321 13.354 26.9394 12.3947 28.8353C12.2556 29.1102 11.8099 29.2225 11.5061 29.4101C11.4819 29.0421 11.3225 28.6103 11.4549 28.316C12.5164 25.9566 14.5261 24.6321 16.7584 23.3835C16.8568 23.3082 16.9433 23.2511 17.0192 23.2413C17.7774 22.9336 18.4767 22.6689 19.1333 22.3202C19.379 22.1898 19.649 21.8866 19.6964 21.6224C19.9512 20.2038 20.1393 18.7727 20.3504 17.3459Z" fill="#F8FAF8"/>
<path d="M16.7261 24.9418C17.6311 24.3464 18.5483 23.8695 19.6219 23.3113C19.3983 27.3793 19.8013 31.1338 20.6205 34.9394C19.5375 35.0429 18.4505 35.0544 17.2589 35.0842C17.0672 35.0844 16.9801 35.0662 16.826 35.051C16.7521 31.7227 16.7452 28.3915 16.7261 24.9418Z" fill="#1BB6C4"/>
<path d="M16.9433 23.251C16.9433 23.251 16.8568 23.3082 16.8061 23.3171C16.7455 21.4099 16.7357 19.4938 16.7347 17.4729C16.7435 17.3681 16.842 17.3357 16.8926 17.3238C16.9431 17.3119 16.9426 17.3208 16.9769 17.415C16.9886 19.4232 16.9659 21.3371 16.9433 23.251Z" fill="#2BB8B8"/>
<path d="M21.9483 35.0614C20.7314 31.1556 20.5774 27.144 20.763 22.9466C25.0808 21.6748 29.4318 21.2273 33.9691 21.9628C34.053 26.2813 34.0485 30.5704 34.035 34.9624C34.0261 35.0652 33.9408 35.0574 33.9053 35.0817C30.099 35.0926 26.3283 35.0791 22.389 35.0687C22.1299 35.0684 22.0391 35.0649 21.9483 35.0614Z" fill="#16B5C6"/>
<path d="M20.9822 21.4793C21.1762 20.1483 21.3703 18.8173 21.6127 17.4128C25.7274 17.3384 29.7938 17.3373 33.9642 17.3391C34.0648 18.3991 34.0615 19.4563 34.0545 20.6146C29.9465 20.1375 25.8853 20.3455 21.8711 21.4148C21.6544 21.4726 21.434 21.5155 21.1121 21.5352C21.0088 21.5051 20.9822 21.4793 20.9822 21.4793Z" fill="#16B5C7"/>
<path d="M20.5909 35.2044C20.8095 35.6779 21.0134 36.2413 21.215 36.8914C21.0006 36.4169 20.7884 35.8556 20.5909 35.2044Z" fill="#ED792F"/>
<path d="M17.0192 23.2413C16.9659 21.3371 16.9886 19.4232 16.9794 17.4183C18.0102 17.3324 19.0729 17.3374 20.243 17.3441C20.1393 18.7727 19.9512 20.2038 19.6964 21.6224C19.649 21.8866 19.379 22.1897 19.1333 22.3202C18.4767 22.6689 17.7774 22.9336 17.0192 23.2413Z" fill="#23B5C9"/>
</g>
<defs>
<clipPath id="clip0_34_118">
<rect width="50.5753" height="52" fill="white"/>
</clipPath>
</defs>
</svg>
