<svg width="107" height="46" viewBox="0 0 107 46" fill="none" xmlns="http://www.w3.org/2000/svg">
<g clip-path="url(#clip0_24_6)">
<path d="M74.9724 46.1847C68.9318 46.1847 62.8913 46.1847 56.6976 46.1533C56.4983 46.0807 56.4499 46.0409 56.3826 45.9166C56.3629 44.9406 56.3582 44.0506 56.357 43.1607C56.3473 35.4273 56.3382 27.6938 56.34 19.9266C56.1866 19.9195 56.022 19.9463 55.8526 20.0437C54.5779 22.505 53.3217 24.8996 52.0352 27.2856C49.8381 31.3606 47.6269 35.4317 45.4115 39.5015C44.2971 41.5486 43.1604 43.5894 41.9974 45.6571C41.9135 45.714 41.8683 45.7485 41.7065 45.7965C38.3506 45.8005 35.1134 45.7925 31.8587 45.7318C31.6969 45.5398 31.5527 45.4004 31.3715 45.2061C31.2504 45.0059 31.1664 44.8604 31.0991 44.6794C31.0434 44.5416 30.9709 44.4394 30.8615 44.2824C30.7404 44.0822 30.6564 43.9367 30.5891 43.7557C30.5334 43.6179 30.4609 43.5157 30.3514 43.3587C30.2304 43.1585 30.1463 43.013 30.0882 42.8172C29.9505 42.4898 29.787 42.2127 29.5864 41.8808C29.4654 41.6806 29.3813 41.5351 29.3141 41.3541C29.2583 41.2163 29.1859 41.1141 29.0764 40.9571C28.9554 40.7569 28.8713 40.6114 28.804 40.4304C28.7483 40.2926 28.6759 40.1904 28.5664 40.0335C28.4453 39.8332 28.3613 39.6877 28.294 39.5067C28.2383 39.3689 28.1658 39.2668 28.0564 39.1098C27.9353 38.9095 27.8513 38.764 27.7931 38.5682C27.6554 38.2408 27.4919 37.9638 27.2913 37.6318C27.1703 37.4316 27.0863 37.2861 27.019 37.1051C26.9633 36.9673 26.8908 36.8651 26.7813 36.7081C26.6603 36.5079 26.5762 36.3624 26.518 36.1666C26.3804 35.8392 26.2168 35.5621 26.0163 35.2302C25.8953 35.03 25.8112 34.8845 25.7439 34.7035C25.6882 34.5657 25.6158 34.4635 25.5063 34.3065C25.3852 34.1063 25.3012 33.9608 25.243 33.765C25.1053 33.4376 24.9418 33.1605 24.7413 32.8286C24.6202 32.6284 24.5362 32.4829 24.4689 32.3019C24.4132 32.1641 24.3407 32.0619 24.2312 31.9049C24.1102 31.7047 24.0261 31.5592 23.968 31.3634C23.8303 31.036 23.6668 30.7589 23.4662 30.427C23.3452 30.2268 23.2611 30.0813 23.1939 29.9003C23.1382 29.7625 23.0657 29.6603 22.9562 29.5033C22.8352 29.303 22.7511 29.1576 22.6929 28.9618C22.5553 28.6344 22.3917 28.3573 22.1912 28.0254C22.0701 27.8251 21.9861 27.6797 21.9188 27.4987C21.8631 27.3609 21.7906 27.2587 21.6812 27.1017C21.5601 26.9014 21.4761 26.756 21.4179 26.5602C21.2802 26.2328 21.1167 25.9557 20.9161 25.6238C20.7951 25.4235 20.7111 25.2781 20.6438 25.097C20.5881 24.9593 20.5156 24.8571 20.4061 24.7001C20.2851 24.4998 20.201 24.3544 20.1428 24.1586C20.0052 23.8312 19.8416 23.5541 19.6411 23.2222C19.5201 23.0219 19.436 22.8765 19.3687 22.6954C19.313 22.5577 19.2406 22.4555 19.1311 22.2985C19.01 22.0982 18.926 21.9528 18.8587 21.7717C18.803 21.634 18.7305 21.5318 18.6211 21.3748C18.5 21.1745 18.416 21.0291 18.3578 20.8333C18.2201 20.5059 18.0566 20.2288 17.8751 19.9117C17.8572 19.8716 17.8399 19.7883 17.8127 19.7504C17.6682 19.6606 17.5508 19.6087 17.4335 19.5567C17.4118 19.6297 17.3901 19.7027 17.3575 19.8614C17.3446 23.6608 17.3469 27.3745 17.3395 31.0882C17.3296 36.0596 17.3122 41.0311 17.2609 46.0319C17.1753 46.101 17.1293 46.1421 17.0855 46.1847C11.4815 46.1847 5.87745 46.1847 0.264206 46.1847C0.264206 30.8726 0.264206 15.5605 0.264206 0.184693C7.40031 0.184693 14.546 0.184693 21.8118 0.245095C21.9411 0.385652 21.9502 0.465807 21.9425 0.581578C21.9983 0.719349 22.0707 0.821503 22.1823 0.980225C22.3589 1.2568 22.4964 1.47682 22.6301 1.75656C22.7204 1.9498 22.8143 2.08332 22.9446 2.27201C23.0028 2.42916 23.0247 2.53114 23.0739 2.68772C23.207 2.87506 23.3126 3.0078 23.4546 3.19571C23.5128 3.35286 23.5347 3.45483 23.5839 3.61141C23.717 3.79876 23.8226 3.93149 23.9653 4.11906C24.0863 4.31934 24.1703 4.46478 24.2376 4.64584C24.2933 4.78361 24.3658 4.88576 24.4753 5.04276C24.5963 5.24303 24.6804 5.38847 24.7476 5.56953C24.8033 5.7073 24.8758 5.80946 24.985 5.96611C25.1673 6.23163 25.3128 6.44265 25.4384 6.6982C25.5168 6.89674 25.615 7.05076 25.7503 7.25962C25.8714 7.4599 25.9554 7.60534 26.0227 7.7864C26.0784 7.92417 26.1509 8.02632 26.2597 8.18366C26.3179 8.34081 26.3398 8.44278 26.389 8.59936C26.5221 8.78671 26.6277 8.91944 26.7703 9.10701C26.8914 9.30729 26.9754 9.45273 27.0427 9.63379C27.0984 9.77156 27.1709 9.87371 27.2834 10.0336C27.4279 10.3147 27.5323 10.5382 27.6641 10.8162C27.7971 11.0036 27.9028 11.1363 28.0454 11.3239C28.1664 11.5242 28.2505 11.6696 28.3178 11.8507C28.3735 11.9884 28.4459 12.0906 28.5362 12.2326C28.554 12.2725 28.5708 12.3555 28.6026 12.3904C28.6782 12.4713 28.7245 12.5159 28.7932 12.6036C28.8235 12.6783 28.834 12.7085 28.8278 12.7744C28.8835 12.9121 28.9559 13.0143 29.0462 13.1563C29.0641 13.1962 29.0808 13.2792 29.1126 13.3141C29.1882 13.395 29.2346 13.4396 29.3197 13.5382C29.4405 13.7397 29.525 13.8858 29.5928 14.0675C29.6485 14.2053 29.721 14.3074 29.8304 14.4644C29.9515 14.6647 30.0355 14.8102 30.1028 14.9912C30.1585 15.129 30.231 15.2311 30.3398 15.3885C30.3981 15.5456 30.4199 15.6476 30.4692 15.8042C30.6022 15.9915 30.7078 16.1243 30.8505 16.3118C30.9715 16.5121 31.0556 16.6576 31.1228 16.8386C31.1785 16.9764 31.251 17.0785 31.3413 17.2206C31.3591 17.2605 31.3758 17.3435 31.4077 17.3784C31.4833 17.4593 31.5296 17.5039 31.5983 17.5916C31.6286 17.6663 31.6391 17.6965 31.6329 17.7623C31.6886 17.9001 31.761 18.0022 31.8703 18.159C32.0526 18.4245 32.1981 18.6355 32.3236 18.891C32.402 19.0895 32.5003 19.2435 32.6355 19.4524C32.7566 19.6527 32.8406 19.7981 32.9079 19.9792C32.9636 20.1169 33.0361 20.2191 33.1455 20.3761C33.2666 20.5764 33.3506 20.7218 33.4268 20.9133C33.4854 21.0687 33.552 21.1782 33.6573 21.327C33.7163 21.4646 33.7365 21.5629 33.7843 21.7158C33.9173 21.9032 34.023 22.0359 34.1686 22.2262C34.313 22.5074 34.4174 22.7309 34.5493 23.009C34.6824 23.1964 34.788 23.3291 34.9306 23.5167C35.0517 23.7169 35.1357 23.8624 35.203 24.0434C35.2587 24.1812 35.3311 24.2834 35.4406 24.4403C35.5617 24.6406 35.6457 24.7861 35.713 24.9671C35.7687 25.1049 35.8412 25.2071 35.9531 25.3663C36.2355 25.7035 36.4783 25.9836 36.753 26.2978C36.9089 26.3702 37.0331 26.4086 37.1573 26.4469C37.1726 26.3727 37.1879 26.2984 37.2148 26.155C39.2716 22.4294 41.3008 18.7683 43.3662 15.1178C46.0806 10.3205 48.8235 5.53159 51.6361 0.727261C51.9893 0.538546 52.2605 0.361619 52.5317 0.184692C59.8472 0.184693 67.1628 0.184693 74.6179 0.266758C74.8144 0.510199 74.8713 0.671574 74.9173 0.854597C74.9064 0.876245 74.8465 0.892022 74.7596 0.885319C74.4362 1.02378 74.1998 1.16895 73.9272 1.36935C71.7641 2.7988 70.0822 4.4082 69.0939 6.35555C67.9772 8.55582 67.236 10.7971 67.8016 13.1769C68.0177 14.0861 68.0761 15.015 68.2113 16.0041C68.4141 16.3808 68.6119 16.6884 68.8536 17.0569C70.4191 19.4705 72.7726 21.2903 75.8015 22.6416C77.2599 23.2923 78.8158 23.8283 80.3576 24.4476C80.5411 24.5023 80.6946 24.5256 80.9313 24.5591C81.2105 24.6415 81.4065 24.7136 81.6469 24.8309C82.0902 24.9516 82.4892 25.0274 82.981 25.114C83.6034 25.2581 84.133 25.3914 84.7221 25.565C84.9765 25.6668 85.1714 25.7283 85.4487 25.7471C86.1767 25.8292 86.8222 25.9541 87.5272 26.1192C87.7816 26.221 87.9765 26.2826 88.2602 26.3014C89.4153 26.4451 90.4816 26.6315 91.6073 26.8582C91.8617 26.96 92.0566 27.0215 92.334 27.0403C93.0619 27.1223 93.7075 27.2472 94.4124 27.4124C94.6668 27.5142 94.8617 27.5757 95.1393 27.5945C96.2074 27.7381 97.1927 27.9246 98.2224 28.1562C98.6657 28.277 99.0647 28.3527 99.5468 28.4386C99.8261 28.521 100.022 28.5931 100.262 28.7104C100.706 28.8312 101.105 28.9069 101.595 28.9934C102.559 29.3839 103.43 29.7635 104.335 30.1696C104.414 30.2303 104.461 30.2631 104.545 30.347C104.742 30.499 104.905 30.5982 105.1 30.7238C105.179 30.7845 105.226 30.8173 105.317 30.9074C105.774 31.4749 106.188 31.9834 106.642 32.5274C106.735 32.6095 106.791 32.6548 106.848 32.6987C106.848 32.8373 106.848 32.9759 106.773 33.1992C105.83 33.6631 106.349 33.919 106.848 34.1767C106.848 34.3152 106.848 34.4538 106.785 34.6908C106.598 34.9001 106.473 35.0108 106.344 35.1894C105.952 36.36 105.016 37.1859 103.714 37.8795C102.876 37.8617 102.298 37.9897 102.225 38.6847C101.955 38.7639 101.73 38.7899 101.442 38.7965C101.162 38.8961 100.945 39.0149 100.63 39.1489C99.2938 39.3903 98.07 39.7357 96.8132 39.8187C94.118 39.9967 91.4035 40.0568 88.7256 39.2661C88.1923 39.1008 87.7359 38.9879 87.2088 38.9078C86.993 38.8818 86.8479 38.8231 86.6763 38.7189C86.4089 38.5979 86.1679 38.5224 85.8365 38.4362C83.8927 37.7048 82.4517 36.6959 81.5998 35.2429C81.4621 34.9155 81.2986 34.6384 81.087 34.296C80.8378 33.5573 80.6366 32.8839 80.434 32.2058C75.6045 32.2058 70.7464 32.2058 65.7923 32.2058C65.7923 32.5985 65.74 32.937 65.8015 33.2643C66.0435 34.5529 66.3213 35.8379 66.5598 37.1788C66.7824 37.6923 67.031 38.1513 67.3166 38.6652C67.4377 38.8655 67.5217 39.011 67.589 39.192C67.6447 39.3298 67.7172 39.4319 67.8322 39.5938C69.4978 42.1064 72.0017 44.0074 74.9815 45.6812C74.9774 45.897 74.9749 46.0408 74.9724 46.1847Z" fill="#18181B"/>
<path d="M106.848 19.6805C101.384 18.7217 95.8907 17.7461 90.4665 16.5997C87.9874 16.0758 85.6215 15.2517 84.1182 13.555C82.7971 12.0642 83.2049 9.34258 84.8953 8.04022C87.1679 6.28942 90.0281 5.61688 93.2276 5.5487C95.7473 5.49501 98.2547 5.49869 100.651 6.25172C103.784 7.23591 105.888 8.78446 106.355 11.3252C106.379 11.456 106.548 11.5728 106.749 11.6674C106.848 14.2904 106.848 16.9422 106.848 19.6805Z" fill="#18181B"/>
<path d="M106.848 34.0997C106.349 33.919 105.83 33.6631 106.773 33.2685C106.848 33.5095 106.848 33.7661 106.848 34.0997Z" fill="#18181B"/>
<path d="M74.9815 45.6813C75.3829 45.7627 75.7827 45.9161 76.2149 46.1271C75.8932 46.1847 75.5391 46.1847 75.0786 46.1847C74.9749 46.0409 74.9774 45.897 74.9815 45.6813Z" fill="#18181B"/>
<path d="M51.6361 0.727261C51.6235 0.593869 51.693 0.448689 51.7645 0.244101C51.9579 0.184693 52.1491 0.184693 52.436 0.184692C52.2605 0.361619 51.9893 0.538546 51.6361 0.727261Z" fill="#18181B"/>
<path d="M75.3868 0.184692C75.3387 0.376771 75.195 0.568849 74.9898 0.796938C74.8713 0.671573 74.8144 0.510198 74.7374 0.266757C74.9086 0.184692 75.0999 0.184692 75.3868 0.184692Z" fill="#18181B"/>
<path d="M106.848 35.0388C106.737 35.1019 106.626 35.1035 106.432 35.1133C106.473 35.0109 106.598 34.9001 106.785 34.7601C106.848 34.813 106.848 34.8951 106.848 35.0388Z" fill="#18181B"/>
<path d="M103.714 37.8795C103.354 38.1118 102.891 38.3442 102.348 38.604C102.298 37.9898 102.876 37.8617 103.714 37.8795Z" fill="#18181B"/>
<path d="M66.5598 37.1788C66.8258 37.574 67.0659 38.0237 67.2928 38.5419C67.031 38.1514 66.7824 37.6923 66.5598 37.1788Z" fill="#18181B"/>
<path d="M18.3578 20.8334C18.1765 20.6163 18.0211 20.3489 17.8794 20.0167C18.0566 20.2289 18.2201 20.506 18.3578 20.8334Z" fill="#18181B"/>
<path d="M27.7931 38.5683C27.6119 38.3512 27.4565 38.0838 27.3147 37.7516C27.4919 37.9638 27.6555 38.2409 27.7931 38.5683Z" fill="#18181B"/>
<path d="M20.1428 24.1586C19.9615 23.9416 19.8061 23.6742 19.6644 23.3419C19.8416 23.5542 20.0051 23.8312 20.1428 24.1586Z" fill="#18181B"/>
<path d="M30.0881 42.8173C29.9069 42.6003 29.7515 42.3329 29.6097 42.0006C29.7869 42.2129 29.9505 42.4899 30.0881 42.8173Z" fill="#18181B"/>
<path d="M21.4179 26.5603C21.2366 26.3432 21.0812 26.0758 20.9395 25.7435C21.1167 25.9558 21.2802 26.2328 21.4179 26.5603Z" fill="#18181B"/>
<path d="M22.6929 28.9618C22.5117 28.7447 22.3563 28.4773 22.2145 28.1451C22.3917 28.3573 22.5552 28.6344 22.6929 28.9618Z" fill="#18181B"/>
<path d="M98.2224 28.1562C98.5744 28.1804 98.9708 28.2496 99.4154 28.3736C99.0647 28.3528 98.6657 28.277 98.2224 28.1562Z" fill="#18181B"/>
<path d="M100.262 28.7104C100.615 28.7345 101.011 28.8037 101.455 28.9278C101.105 28.9069 100.706 28.8312 100.262 28.7104Z" fill="#18181B"/>
<path d="M88.7257 39.2662C88.3278 39.2084 87.853 39.0982 87.3289 38.9316C87.7359 38.988 88.1923 39.1009 88.7257 39.2662Z" fill="#18181B"/>
<path d="M23.968 31.3635C23.7867 31.1464 23.6313 30.879 23.4896 30.5468C23.6668 30.759 23.8303 31.0361 23.968 31.3635Z" fill="#18181B"/>
<path d="M25.243 33.7651C25.0618 33.548 24.9064 33.2806 24.7646 32.9484C24.9418 33.1606 25.1054 33.4377 25.243 33.7651Z" fill="#18181B"/>
<path d="M81.6469 24.8309C81.9989 24.855 82.3952 24.9242 82.8399 25.0483C82.4892 25.0274 82.0902 24.9517 81.6469 24.8309Z" fill="#18181B"/>
<path d="M81.5998 35.2429C81.4185 35.0259 81.2632 34.7585 81.1214 34.4262C81.2986 34.6385 81.4621 34.9155 81.5998 35.2429Z" fill="#18181B"/>
<path d="M26.5181 36.1666C26.3368 35.9496 26.1814 35.6822 26.0397 35.3499C26.2169 35.5622 26.3804 35.8392 26.5181 36.1666Z" fill="#18181B"/>
<path d="M68.2113 16.0042C68.4164 16.2441 68.6264 16.5532 68.8231 16.9292C68.6119 16.6885 68.4141 16.3809 68.2113 16.0042Z" fill="#18181B"/>
<path d="M86.6763 38.719C86.4674 38.6946 86.2321 38.6248 85.9619 38.501C86.1679 38.5225 86.4089 38.598 86.6763 38.719Z" fill="#18181B"/>
<path d="M74.7596 0.885376C74.5997 1.01744 74.3529 1.14281 74.0347 1.29118C74.1998 1.16901 74.4362 1.02384 74.7596 0.885376Z" fill="#18181B"/>
<path d="M101.442 38.7965C101.298 38.9191 101.091 39.0223 100.806 39.1297C100.945 39.0149 101.162 38.8961 101.442 38.7965Z" fill="#18181B"/>
<path d="M17.8127 19.7505C17.7352 19.7823 17.6306 19.7761 17.4472 19.7729C17.3901 19.7028 17.4118 19.6298 17.4334 19.5568C17.5508 19.6088 17.6682 19.6607 17.8127 19.7505Z" fill="#18181B"/>
<path d="M36.7529 26.2979C36.8279 26.2533 36.9347 26.2429 37.1224 26.2284C37.1879 26.2985 37.1726 26.3727 37.1573 26.447C37.0331 26.4086 36.9089 26.3703 36.7529 26.2979Z" fill="#18181B"/>
<path d="M56.34 19.9266C56.2238 19.9593 56.1187 19.958 55.9355 19.9649C56.022 19.9463 56.1866 19.9196 56.34 19.9266Z" fill="#18181B"/>
<path d="M25.4384 6.69818C25.5528 6.79705 25.6473 6.94044 25.7275 7.1443C25.6151 7.05075 25.5168 6.89673 25.4384 6.69818Z" fill="#18181B"/>
<path d="M32.3237 18.891C32.4381 18.9899 32.5325 19.1333 32.6128 19.3371C32.5003 19.2436 32.4021 19.0895 32.3237 18.891Z" fill="#18181B"/>
<path d="M31.8587 45.7318C31.7108 45.6495 31.5454 45.5145 31.3942 45.3203C31.5527 45.4004 31.697 45.5398 31.8587 45.7318Z" fill="#18181B"/>
<path d="M23.074 2.68774C23.1798 2.76131 23.313 2.88949 23.4322 3.07911C23.3126 3.00782 23.207 2.87509 23.074 2.68774Z" fill="#18181B"/>
<path d="M23.1939 29.9002C23.1061 29.8468 23.0351 29.7578 22.9787 29.6135C23.0658 29.6603 23.1382 29.7625 23.1939 29.9002Z" fill="#18181B"/>
<path d="M26.389 8.59943C26.4948 8.673 26.6281 8.80118 26.7473 8.9908C26.6277 8.9195 26.5221 8.78677 26.389 8.59943Z" fill="#18181B"/>
<path d="M24.4689 32.3019C24.3811 32.2485 24.31 32.1595 24.2536 32.0151C24.3407 32.062 24.4132 32.1641 24.4689 32.3019Z" fill="#18181B"/>
<path d="M26.0227 7.7865C26.1105 7.83991 26.1816 7.92893 26.238 8.07327C26.1509 8.02642 26.0784 7.92427 26.0227 7.7865Z" fill="#18181B"/>
<path d="M25.7439 34.7035C25.6561 34.6501 25.5851 34.5611 25.5287 34.4167C25.6157 34.4636 25.6882 34.5657 25.7439 34.7035Z" fill="#18181B"/>
<path d="M24.7477 5.56952C24.8355 5.62293 24.9065 5.71195 24.9629 5.85629C24.8758 5.80945 24.8034 5.70729 24.7477 5.56952Z" fill="#18181B"/>
<path d="M24.2377 4.64581C24.3255 4.69922 24.3965 4.78825 24.4529 4.93258C24.3659 4.88574 24.2934 4.78359 24.2377 4.64581Z" fill="#18181B"/>
<path d="M23.5839 3.61145C23.6897 3.68502 23.823 3.8132 23.9422 4.00282C23.8226 3.93153 23.717 3.79879 23.5839 3.61145Z" fill="#18181B"/>
<path d="M27.019 37.1051C26.9312 37.0517 26.8601 36.9626 26.8037 36.8183C26.8908 36.8651 26.9633 36.9673 27.019 37.1051Z" fill="#18181B"/>
<path d="M22.6301 1.75659C22.735 1.83151 22.8361 1.96617 22.9227 2.15884C22.8143 2.08335 22.7204 1.94984 22.6301 1.75659Z" fill="#18181B"/>
<path d="M31.1228 16.8386C31.2106 16.892 31.2816 16.9811 31.3381 17.1254C31.251 17.0785 31.1785 16.9764 31.1228 16.8386Z" fill="#18181B"/>
<path d="M21.9426 0.581665C22.0304 0.635073 22.1014 0.724099 22.1578 0.868434C22.0707 0.82159 21.9983 0.719436 21.9426 0.581665Z" fill="#18181B"/>
<path d="M28.294 39.5067C28.2062 39.4533 28.1352 39.3643 28.0788 39.22C28.1658 39.2668 28.2383 39.369 28.294 39.5067Z" fill="#18181B"/>
<path d="M67.589 39.1921C67.6768 39.2455 67.7478 39.3346 67.8043 39.4789C67.7172 39.4321 67.6447 39.3299 67.589 39.1921Z" fill="#18181B"/>
<path d="M33.4268 20.9133C33.5067 20.975 33.5788 21.0827 33.6347 21.239C33.552 21.1782 33.4854 21.0687 33.4268 20.9133Z" fill="#18181B"/>
</g>
<defs>
<clipPath id="clip0_24_6">
<rect width="106.593" height="46" fill="white"/>
</clipPath>
</defs>
</svg>
