<svg width="108" height="46" viewBox="0 0 108 46" fill="none" xmlns="http://www.w3.org/2000/svg">
<g clip-path="url(#clip0_11_5067)">
<path d="M75.4724 46.1847C69.4318 46.1847 63.3913 46.1847 57.1976 46.1533C56.9983 46.0807 56.9499 46.0409 56.8826 45.9166C56.8629 44.9406 56.8582 44.0506 56.857 43.1607C56.8473 35.4273 56.8382 27.6938 56.84 19.9266C56.6865 19.9195 56.522 19.9463 56.3526 20.0437C55.0779 22.505 53.8217 24.8996 52.5352 27.2856C50.338 31.3606 48.1269 35.4317 45.9115 39.5015C44.7971 41.5486 43.6604 43.5894 42.4974 45.6571C42.4135 45.714 42.3683 45.7485 42.2065 45.7965C38.8506 45.8005 35.6134 45.7925 32.3587 45.7318C32.1969 45.5398 32.0527 45.4004 31.8715 45.2061C31.7504 45.0059 31.6664 44.8604 31.5991 44.6794C31.5434 44.5416 31.4709 44.4394 31.3614 44.2824C31.2404 44.0822 31.1564 43.9367 31.0891 43.7557C31.0334 43.6179 30.9609 43.5157 30.8514 43.3587C30.7304 43.1585 30.6463 43.013 30.5881 42.8172C30.4505 42.4898 30.2869 42.2127 30.0864 41.8808C29.9654 41.6806 29.8813 41.5351 29.814 41.3541C29.7583 41.2163 29.6859 41.1141 29.5764 40.9571C29.4553 40.7569 29.3713 40.6114 29.304 40.4304C29.2483 40.2926 29.1758 40.1904 29.0664 40.0335C28.9453 39.8332 28.8613 39.6877 28.794 39.5067C28.7383 39.3689 28.6658 39.2668 28.5564 39.1098C28.4353 38.9095 28.3513 38.764 28.2931 38.5682C28.1554 38.2408 27.9919 37.9638 27.7913 37.6318C27.6703 37.4316 27.5862 37.2861 27.519 37.1051C27.4633 36.9673 27.3908 36.8651 27.2813 36.7081C27.1603 36.5079 27.0762 36.3624 27.018 36.1666C26.8804 35.8392 26.7168 35.5621 26.5163 35.2302C26.3952 35.03 26.3112 34.8845 26.2439 34.7035C26.1882 34.5657 26.1158 34.4635 26.0063 34.3065C25.8852 34.1063 25.8012 33.9608 25.743 33.765C25.6053 33.4376 25.4418 33.1605 25.2413 32.8286C25.1202 32.6284 25.0362 32.4829 24.9689 32.3019C24.9132 32.1641 24.8407 32.0619 24.7312 31.9049C24.6102 31.7047 24.5261 31.5592 24.4679 31.3634C24.3303 31.036 24.1667 30.7589 23.9662 30.427C23.8452 30.2267 23.7611 30.0813 23.6938 29.9003C23.6381 29.7625 23.5657 29.6603 23.4562 29.5033C23.3351 29.303 23.2511 29.1576 23.1929 28.9618C23.0552 28.6344 22.8917 28.3573 22.6912 28.0254C22.5701 27.8251 22.4861 27.6797 22.4188 27.4987C22.3631 27.3609 22.2906 27.2587 22.1812 27.1017C22.0601 26.9014 21.9761 26.756 21.9179 26.5602C21.7802 26.2328 21.6167 25.9557 21.4161 25.6238C21.2951 25.4235 21.211 25.2781 21.1438 25.097C21.0881 24.9593 21.0156 24.8571 20.9061 24.7001C20.7851 24.4998 20.701 24.3544 20.6428 24.1586C20.5052 23.8312 20.3416 23.5541 20.1411 23.2222C20.02 23.0219 19.936 22.8765 19.8687 22.6954C19.813 22.5577 19.7405 22.4555 19.6311 22.2985C19.51 22.0982 19.426 21.9528 19.3587 21.7717C19.303 21.634 19.2305 21.5318 19.1211 21.3748C19 21.1745 18.916 21.0291 18.8578 20.8333C18.7201 20.5059 18.5566 20.2288 18.3751 19.9117C18.3572 19.8716 18.3398 19.7883 18.3127 19.7504C18.1682 19.6606 18.0508 19.6087 17.9335 19.5567C17.9118 19.6297 17.8901 19.7027 17.8575 19.8614C17.8445 23.6608 17.8468 27.3745 17.8395 31.0882C17.8296 36.0596 17.8122 41.0311 17.7609 46.0319C17.6753 46.101 17.6292 46.1421 17.5855 46.1847C11.9815 46.1847 6.37744 46.1847 0.764191 46.1847C0.764191 30.8726 0.764191 15.5605 0.764191 0.184693C7.90029 0.184693 15.046 0.184693 22.3118 0.245095C22.4411 0.385652 22.4502 0.465807 22.4425 0.581578C22.4982 0.719349 22.5707 0.821503 22.6823 0.980225C22.8589 1.2568 22.9963 1.47682 23.1301 1.75656C23.2204 1.9498 23.3143 2.08332 23.4446 2.27201C23.5028 2.42916 23.5246 2.53114 23.5739 2.68772C23.707 2.87506 23.8126 3.0078 23.9546 3.19571C24.0128 3.35286 24.0347 3.45483 24.0839 3.61141C24.217 3.79876 24.3226 3.93149 24.4652 4.11906C24.5863 4.31934 24.6703 4.46478 24.7376 4.64584C24.7933 4.78361 24.8658 4.88576 24.9753 5.04276C25.0963 5.24303 25.1803 5.38847 25.2476 5.56953C25.3033 5.7073 25.3758 5.80946 25.485 5.96611C25.6673 6.23163 25.8128 6.44265 25.9384 6.6982C26.0168 6.89674 26.115 7.05076 26.2503 7.25962C26.3713 7.4599 26.4554 7.60534 26.5227 7.7864C26.5784 7.92417 26.6508 8.02632 26.7597 8.18366C26.8179 8.34081 26.8398 8.44278 26.889 8.59936C27.0221 8.78671 27.1277 8.91944 27.2703 9.10701C27.3914 9.30729 27.4754 9.45273 27.5427 9.63379C27.5984 9.77156 27.6709 9.87371 27.7834 10.0336C27.9279 10.3147 28.0323 10.5382 28.1641 10.8162C28.2971 11.0036 28.4027 11.1363 28.5454 11.3239C28.6664 11.5242 28.7505 11.6696 28.8177 11.8507C28.8734 11.9884 28.9459 12.0906 29.0362 12.2326C29.054 12.2725 29.0707 12.3555 29.1026 12.3904C29.1782 12.4713 29.2245 12.5159 29.2932 12.6036C29.3235 12.6783 29.334 12.7085 29.3278 12.7744C29.3835 12.9121 29.4559 13.0143 29.5462 13.1563C29.564 13.1962 29.5808 13.2792 29.6126 13.3141C29.6882 13.395 29.7345 13.4396 29.8197 13.5382C29.9405 13.7397 30.025 13.8858 30.0928 14.0675C30.1485 14.2053 30.221 14.3074 30.3304 14.4644C30.4515 14.6647 30.5355 14.8102 30.6028 14.9912C30.6585 15.129 30.731 15.2311 30.8398 15.3885C30.898 15.5456 30.9199 15.6476 30.9692 15.8042C31.1022 15.9915 31.2078 16.1243 31.3505 16.3118C31.4715 16.5121 31.5555 16.6576 31.6228 16.8386C31.6785 16.9764 31.751 17.0785 31.8413 17.2206C31.8591 17.2605 31.8758 17.3435 31.9077 17.3784C31.9833 17.4593 32.0296 17.5039 32.0983 17.5916C32.1286 17.6663 32.1391 17.6965 32.1328 17.7623C32.1885 17.9001 32.261 18.0022 32.3703 18.159C32.5526 18.4245 32.698 18.6355 32.8236 18.891C32.902 19.0895 33.0002 19.2435 33.1355 19.4524C33.2566 19.6527 33.3406 19.7981 33.4079 19.9792C33.4636 20.1169 33.5361 20.2191 33.6455 20.3761C33.7666 20.5764 33.8506 20.7218 33.9267 20.9133C33.9854 21.0687 34.052 21.1782 34.1573 21.327C34.2163 21.4646 34.2365 21.5629 34.2842 21.7158C34.4173 21.9032 34.5229 22.0359 34.6686 22.2262C34.813 22.5074 34.9174 22.7309 35.0493 23.009C35.1823 23.1964 35.288 23.3291 35.4306 23.5167C35.5516 23.7169 35.6357 23.8624 35.703 24.0434C35.7587 24.1812 35.8311 24.2834 35.9406 24.4403C36.0617 24.6406 36.1457 24.7861 36.213 24.9671C36.2687 25.1049 36.3411 25.2071 36.4531 25.3663C36.7354 25.7035 36.9783 25.9836 37.2529 26.2978C37.4089 26.3702 37.5331 26.4086 37.6573 26.4469C37.6726 26.3727 37.6879 26.2984 37.7148 26.155C39.7716 22.4294 41.8008 18.7683 43.8662 15.1178C46.5806 10.3205 49.3235 5.53159 52.1361 0.727261C52.4893 0.538546 52.7605 0.361619 53.0316 0.184692C60.3472 0.184693 67.6628 0.184693 75.1178 0.266758C75.3143 0.510199 75.3713 0.671574 75.4173 0.854597C75.4063 0.876245 75.3465 0.892022 75.2595 0.885319C74.9361 1.02378 74.6997 1.16895 74.4272 1.36935C72.2641 2.7988 70.5822 4.4082 69.5939 6.35555C68.4772 8.55582 67.7359 10.7971 68.3015 13.1769C68.5176 14.0861 68.5761 15.015 68.7113 16.0041C68.914 16.3808 69.1119 16.6884 69.3536 17.0569C70.9191 19.4705 73.2726 21.2903 76.3015 22.6416C77.7599 23.2923 79.3158 23.8283 80.8576 24.4476C81.0411 24.5023 81.1946 24.5256 81.4313 24.5591C81.7105 24.6415 81.9065 24.7136 82.1469 24.8309C82.5901 24.9516 82.9891 25.0274 83.481 25.114C84.1034 25.2581 84.633 25.3914 85.2221 25.565C85.4765 25.6668 85.6714 25.7283 85.9487 25.7471C86.6767 25.8292 87.3222 25.9541 88.0272 26.1192C88.2816 26.221 88.4765 26.2826 88.7602 26.3014C89.9153 26.4451 90.9816 26.6315 92.1073 26.8582C92.3617 26.96 92.5566 27.0215 92.8339 27.0403C93.5619 27.1223 94.2074 27.2472 94.9124 27.4124C95.1668 27.5142 95.3617 27.5757 95.6393 27.5945C96.7074 27.7381 97.6927 27.9246 98.7224 28.1562C99.1657 28.277 99.5647 28.3527 100.047 28.4386C100.326 28.521 100.522 28.5931 100.762 28.7104C101.206 28.8312 101.605 28.9069 102.095 28.9934C103.059 29.3839 103.93 29.7635 104.835 30.1696C104.914 30.2303 104.961 30.2631 105.045 30.347C105.242 30.499 105.405 30.5982 105.6 30.7238C105.679 30.7845 105.726 30.8173 105.817 30.9074C106.274 31.4749 106.688 31.9834 107.142 32.5274C107.235 32.6095 107.291 32.6548 107.348 32.6987C107.348 32.8373 107.348 32.9759 107.273 33.1992C106.33 33.6631 106.849 33.919 107.348 34.1767C107.348 34.3152 107.348 34.4538 107.285 34.6908C107.098 34.9001 106.973 35.0108 106.844 35.1894C106.452 36.36 105.516 37.1859 104.214 37.8795C103.376 37.8617 102.798 37.9897 102.724 38.6847C102.455 38.7639 102.23 38.7899 101.942 38.7965C101.662 38.8961 101.445 39.0149 101.13 39.1489C99.7938 39.3903 98.57 39.7357 97.3132 39.8187C94.618 39.9967 91.9035 40.0568 89.2256 39.2661C88.6923 39.1008 88.2359 38.9879 87.7087 38.9078C87.493 38.8818 87.3479 38.8231 87.1763 38.7189C86.9089 38.5979 86.6679 38.5224 86.3365 38.4362C84.3927 37.7048 82.9517 36.6959 82.0998 35.2429C81.9621 34.9155 81.7986 34.6385 81.587 34.296C81.3378 33.5573 81.1366 32.8839 80.934 32.2058C76.1045 32.2058 71.2464 32.2058 66.2923 32.2058C66.2923 32.5985 66.24 32.937 66.3015 33.2643C66.5435 34.5529 66.8212 35.8379 67.0598 37.1788C67.2824 37.6923 67.531 38.1513 67.8166 38.6652C67.9377 38.8655 68.0217 39.011 68.089 39.192C68.1447 39.3298 68.2172 39.4319 68.3322 39.5938C69.9978 42.1064 72.5017 44.0074 75.4815 45.6812C75.4774 45.897 75.4749 46.0408 75.4724 46.1847Z" fill="#F4F4F5"/>
<path d="M107.348 19.6805C101.884 18.7217 96.3907 17.7461 90.9665 16.5997C88.4874 16.0758 86.1216 15.2517 84.6182 13.555C83.2972 12.0642 83.7049 9.34258 85.3954 8.04022C87.6679 6.28942 90.5282 5.61688 93.7276 5.5487C96.2473 5.49501 98.7547 5.49869 101.151 6.25172C104.284 7.23591 106.388 8.78446 106.855 11.3252C106.879 11.456 107.048 11.5728 107.249 11.6674C107.348 14.2904 107.348 16.9422 107.348 19.6805Z" fill="#F4F4F5"/>
<path d="M107.348 34.0997C106.849 33.919 106.33 33.6631 107.273 33.2685C107.348 33.5095 107.348 33.7661 107.348 34.0997Z" fill="#F4F4F5"/>
<path d="M75.4815 45.6813C75.8829 45.7627 76.2827 45.9161 76.7149 46.1271C76.3932 46.1847 76.0391 46.1847 75.5786 46.1847C75.4749 46.0409 75.4774 45.897 75.4815 45.6813Z" fill="#F4F4F5"/>
<path d="M52.1361 0.727261C52.1235 0.593869 52.193 0.448689 52.2645 0.244101C52.4579 0.184693 52.6491 0.184693 52.936 0.184692C52.7605 0.361619 52.4893 0.538546 52.1361 0.727261Z" fill="#F4F4F5"/>
<path d="M75.8867 0.184692C75.8387 0.376771 75.695 0.568849 75.4898 0.796938C75.3713 0.671573 75.3143 0.510198 75.2374 0.266757C75.4086 0.184692 75.5999 0.184692 75.8867 0.184692Z" fill="#F4F4F5"/>
<path d="M107.348 35.0388C107.237 35.1019 107.126 35.1035 106.932 35.1133C106.973 35.0109 107.098 34.9001 107.285 34.7601C107.348 34.813 107.348 34.8951 107.348 35.0388Z" fill="#F4F4F5"/>
<path d="M104.214 37.8795C103.854 38.1118 103.391 38.3442 102.848 38.604C102.798 37.9898 103.376 37.8617 104.214 37.8795Z" fill="#F4F4F5"/>
<path d="M67.0598 37.1788C67.3258 37.574 67.5659 38.0237 67.7928 38.5419C67.531 38.1514 67.2824 37.6923 67.0598 37.1788Z" fill="#F4F4F5"/>
<path d="M18.8578 20.8334C18.6765 20.6163 18.5211 20.3489 18.3794 20.0167C18.5566 20.2289 18.7201 20.506 18.8578 20.8334Z" fill="#F4F4F5"/>
<path d="M28.2931 38.5683C28.1119 38.3512 27.9565 38.0838 27.8148 37.7516C27.9919 37.9638 28.1555 38.2409 28.2931 38.5683Z" fill="#F4F4F5"/>
<path d="M20.6428 24.1586C20.4615 23.9416 20.3061 23.6742 20.1644 23.3419C20.3416 23.5542 20.5051 23.8312 20.6428 24.1586Z" fill="#F4F4F5"/>
<path d="M30.5881 42.8173C30.4069 42.6003 30.2515 42.3329 30.1097 42.0006C30.2869 42.2129 30.4505 42.4899 30.5881 42.8173Z" fill="#F4F4F5"/>
<path d="M21.9178 26.5603C21.7366 26.3432 21.5812 26.0758 21.4395 25.7435C21.6166 25.9558 21.7802 26.2328 21.9178 26.5603Z" fill="#F4F4F5"/>
<path d="M23.1929 28.9618C23.0116 28.7447 22.8562 28.4773 22.7145 28.1451C22.8917 28.3573 23.0552 28.6344 23.1929 28.9618Z" fill="#F4F4F5"/>
<path d="M98.7224 28.1562C99.0744 28.1804 99.4708 28.2496 99.9154 28.3736C99.5647 28.3528 99.1657 28.277 98.7224 28.1562Z" fill="#F4F4F5"/>
<path d="M100.762 28.7104C101.115 28.7345 101.511 28.8037 101.955 28.9278C101.605 28.9069 101.206 28.8312 100.762 28.7104Z" fill="#F4F4F5"/>
<path d="M89.2257 39.2662C88.8278 39.2084 88.353 39.0982 87.8289 38.9316C88.2359 38.988 88.6923 39.1009 89.2257 39.2662Z" fill="#F4F4F5"/>
<path d="M24.468 31.3635C24.2867 31.1464 24.1313 30.879 23.9896 30.5468C24.1668 30.759 24.3303 31.0361 24.468 31.3635Z" fill="#F4F4F5"/>
<path d="M25.743 33.7651C25.5618 33.548 25.4064 33.2806 25.2646 32.9484C25.4418 33.1606 25.6054 33.4377 25.743 33.7651Z" fill="#F4F4F5"/>
<path d="M82.1469 24.8309C82.4989 24.855 82.8952 24.9242 83.3399 25.0483C82.9892 25.0274 82.5902 24.9517 82.1469 24.8309Z" fill="#F4F4F5"/>
<path d="M82.0998 35.2429C81.9185 35.0259 81.7631 34.7585 81.6214 34.4262C81.7986 34.6385 81.9621 34.9155 82.0998 35.2429Z" fill="#F4F4F5"/>
<path d="M27.0181 36.1666C26.8368 35.9496 26.6814 35.6822 26.5397 35.3499C26.7169 35.5622 26.8804 35.8392 27.0181 36.1666Z" fill="#F4F4F5"/>
<path d="M68.7113 16.0042C68.9164 16.2441 69.1264 16.5532 69.3231 16.9292C69.1119 16.6885 68.9141 16.3809 68.7113 16.0042Z" fill="#F4F4F5"/>
<path d="M87.1763 38.719C86.9674 38.6946 86.7321 38.6248 86.4619 38.501C86.6679 38.5225 86.9089 38.598 87.1763 38.719Z" fill="#F4F4F5"/>
<path d="M75.2596 0.885376C75.0997 1.01744 74.8529 1.14281 74.5347 1.29118C74.6998 1.16901 74.9362 1.02384 75.2596 0.885376Z" fill="#F4F4F5"/>
<path d="M101.942 38.7965C101.798 38.9191 101.591 39.0223 101.306 39.1297C101.445 39.0149 101.662 38.8961 101.942 38.7965Z" fill="#F4F4F5"/>
<path d="M18.3127 19.7505C18.2352 19.7823 18.1306 19.7761 17.9472 19.7729C17.8901 19.7028 17.9118 19.6298 17.9334 19.5568C18.0508 19.6088 18.1682 19.6607 18.3127 19.7505Z" fill="#F4F4F5"/>
<path d="M37.2529 26.2979C37.3279 26.2533 37.4347 26.2429 37.6224 26.2284C37.6879 26.2985 37.6726 26.3727 37.6573 26.447C37.5331 26.4086 37.4089 26.3703 37.2529 26.2979Z" fill="#F4F4F5"/>
<path d="M56.84 19.9266C56.7238 19.9593 56.6187 19.958 56.4355 19.9649C56.522 19.9463 56.6866 19.9196 56.84 19.9266Z" fill="#F4F4F5"/>
<path d="M25.9384 6.69818C26.0528 6.79705 26.1473 6.94044 26.2275 7.1443C26.1151 7.05075 26.0168 6.89673 25.9384 6.69818Z" fill="#F4F4F5"/>
<path d="M32.8237 18.891C32.9381 18.9899 33.0325 19.1333 33.1128 19.3371C33.0003 19.2436 32.9021 19.0895 32.8237 18.891Z" fill="#F4F4F5"/>
<path d="M32.3587 45.7318C32.2108 45.6495 32.0454 45.5145 31.8942 45.3203C32.0527 45.4004 32.197 45.5398 32.3587 45.7318Z" fill="#F4F4F5"/>
<path d="M23.5739 2.68774C23.6797 2.76131 23.813 2.88949 23.9322 3.07911C23.8126 3.00782 23.707 2.87509 23.5739 2.68774Z" fill="#F4F4F5"/>
<path d="M23.6939 29.9002C23.6061 29.8468 23.5351 29.7578 23.4787 29.6135C23.5658 29.6603 23.6382 29.7625 23.6939 29.9002Z" fill="#F4F4F5"/>
<path d="M26.889 8.59943C26.9948 8.673 27.1281 8.80118 27.2473 8.9908C27.1277 8.9195 27.0221 8.78677 26.889 8.59943Z" fill="#F4F4F5"/>
<path d="M24.9689 32.3019C24.8811 32.2485 24.81 32.1595 24.7536 32.0151C24.8407 32.062 24.9132 32.1641 24.9689 32.3019Z" fill="#F4F4F5"/>
<path d="M26.5227 7.7865C26.6105 7.83991 26.6815 7.92893 26.738 8.07327C26.6509 8.02642 26.5784 7.92427 26.5227 7.7865Z" fill="#F4F4F5"/>
<path d="M26.2439 34.7035C26.1561 34.6501 26.0851 34.5611 26.0287 34.4167C26.1157 34.4636 26.1882 34.5657 26.2439 34.7035Z" fill="#F4F4F5"/>
<path d="M25.2477 5.56952C25.3354 5.62293 25.4065 5.71195 25.4629 5.85629C25.3758 5.80945 25.3034 5.70729 25.2477 5.56952Z" fill="#F4F4F5"/>
<path d="M24.7377 4.64581C24.8255 4.69922 24.8965 4.78825 24.953 4.93258C24.8659 4.88574 24.7934 4.78359 24.7377 4.64581Z" fill="#F4F4F5"/>
<path d="M24.0839 3.61145C24.1897 3.68502 24.323 3.8132 24.4422 4.00282C24.3226 3.93153 24.217 3.79879 24.0839 3.61145Z" fill="#F4F4F5"/>
<path d="M27.519 37.1051C27.4312 37.0517 27.3601 36.9626 27.3037 36.8183C27.3908 36.8651 27.4633 36.9673 27.519 37.1051Z" fill="#F4F4F5"/>
<path d="M23.1301 1.75659C23.2349 1.83151 23.3361 1.96617 23.4227 2.15884C23.3143 2.08335 23.2204 1.94984 23.1301 1.75659Z" fill="#F4F4F5"/>
<path d="M31.6228 16.8386C31.7106 16.892 31.7816 16.9811 31.8381 17.1254C31.751 17.0785 31.6785 16.9764 31.6228 16.8386Z" fill="#F4F4F5"/>
<path d="M22.4426 0.581665C22.5304 0.635073 22.6014 0.724099 22.6578 0.868434C22.5707 0.82159 22.4983 0.719436 22.4426 0.581665Z" fill="#F4F4F5"/>
<path d="M28.794 39.5067C28.7062 39.4533 28.6352 39.3643 28.5788 39.22C28.6658 39.2668 28.7383 39.369 28.794 39.5067Z" fill="#F4F4F5"/>
<path d="M68.089 39.1921C68.1768 39.2455 68.2478 39.3346 68.3043 39.4789C68.2172 39.4321 68.1447 39.3299 68.089 39.1921Z" fill="#F4F4F5"/>
<path d="M33.9268 20.9133C34.0067 20.975 34.0788 21.0827 34.1347 21.239C34.052 21.1782 33.9854 21.0687 33.9268 20.9133Z" fill="#F4F4F5"/>
</g>
<defs>
<clipPath id="clip0_11_5067">
<rect width="106.593" height="46" fill="white" transform="translate(0.5)"/>
</clipPath>
</defs>
</svg>
