<svg width="970" height="248" viewBox="0 0 970 248" fill="none" xmlns="http://www.w3.org/2000/svg">
<g clip-path="url(#clip0_28_6)">
<path d="M236.61 77.28C210.61 14.33 138.61 -15.59 75.9 10.46C13.19 36.51 -16.6 108.65 9.41 171.61C35.42 234.57 107.41 264.47 170.11 238.42C232.81 212.37 262.63 140.23 236.61 77.28Z" fill="white"/>
<path d="M167.19 17.6C108.37 -6.81999 40.91 21.23 16.52 80.25C-7.87001 139.27 20.05 206.9 78.86 231.31C137.67 255.72 205.13 227.69 229.52 168.67C253.91 109.65 226 42 167.19 17.6Z" fill="white"/>
<path d="M225.24 107.72C225.24 51 179.48 5.11 123 5.11C66.52 5.11 20.81 51 20.81 107.72C20.81 164.44 66.57 210.33 123 210.33C179.43 210.33 225.24 164.39 225.24 107.72Z" fill="#DDE460"/>
<path d="M123 213C64.4 213 16.9 165.35 16.9 106.51C16.9 47.67 64.4 0 123 0C181.6 0 229.11 47.69 229.11 106.51C229.11 165.33 181.61 213 123 213ZM123 7.88C103.426 7.79289 84.2675 13.5201 67.9528 24.3354C51.6382 35.1508 38.9026 50.5671 31.3607 68.6298C23.8189 86.6925 21.8105 106.588 25.5903 125.793C29.3701 144.999 38.7678 162.649 52.5918 176.507C66.4157 190.365 84.0434 199.806 103.24 203.632C122.436 207.459 142.336 205.499 160.417 198.001C178.498 190.503 193.945 177.805 204.8 161.517C215.656 145.229 221.429 126.084 221.39 106.51C221.36 52 177.33 7.77 123 7.71V7.88Z" fill="white"/>
<path d="M190.75 154.71C190.75 107.71 152.75 69.53 105.89 69.53C59.03 69.53 21 107.67 21 154.71C21 201.75 59 239.88 105.85 239.88C152.7 239.88 190.71 201.74 190.71 154.71H190.75Z" fill="#A7DCDA"/>
<path d="M106.07 243.76C99.7601 243.761 93.4681 243.09 87.3 241.76C39.41 231.48 8.90999 184.15 19.18 136.07C21.591 124.658 26.2292 113.835 32.829 104.218C39.4288 94.6014 47.8607 86.381 57.6417 80.0275C67.4228 73.674 78.361 69.3121 89.83 67.1917C101.299 65.0712 113.074 65.2337 124.48 67.67C172.39 77.97 202.89 125.29 192.65 173.37C188.44 193.211 177.567 211.013 161.838 223.818C146.109 236.623 126.472 243.661 106.19 243.76H106.07ZM105.87 73.38C87.4252 73.3273 69.5109 79.5497 55.0702 91.025C40.6296 102.5 30.5214 118.546 26.4063 136.526C22.2912 154.506 24.414 173.351 32.4258 189.965C40.4376 206.579 53.8621 219.974 70.4936 227.949C87.1252 235.924 105.975 238.006 123.946 233.851C141.917 229.696 157.94 219.553 169.383 205.087C180.827 190.621 187.01 172.693 186.917 154.248C186.823 135.804 180.459 117.939 168.87 103.59C161.282 94.1801 151.688 86.5843 140.788 81.3576C129.888 76.1309 117.958 73.4053 105.87 73.38Z" fill="black"/>
<path d="M232.65 158.29C232.608 147.888 229.486 137.732 223.677 129.103C217.868 120.475 209.633 113.76 200.012 109.808C190.39 105.856 179.813 104.842 169.616 106.896C159.419 108.95 150.059 113.979 142.718 121.349C135.377 128.718 130.383 138.097 128.368 148.301C126.353 158.506 127.406 169.079 131.395 178.686C135.383 188.292 142.129 196.502 150.779 202.278C159.43 208.054 169.598 211.138 180 211.14C186.927 211.128 193.784 209.752 200.179 207.089C206.574 204.426 212.382 200.53 217.27 195.622C222.158 190.714 226.032 184.89 228.669 178.485C231.306 172.079 232.656 165.217 232.64 158.29H232.65Z" fill="#F6DF3F"/>
<path d="M180 215C168.775 215.044 157.789 211.755 148.434 205.55C139.079 199.345 131.776 190.503 127.45 180.145C123.124 169.786 121.97 158.377 124.133 147.362C126.296 136.347 131.68 126.221 139.602 118.268C147.524 110.315 157.629 104.892 168.635 102.686C179.642 100.48 191.056 101.59 201.431 105.876C211.806 110.162 220.676 117.43 226.917 126.761C233.158 136.091 236.49 147.064 236.49 158.29C236.504 165.723 235.055 173.086 232.224 179.958C229.393 186.831 225.236 193.078 219.99 198.345C214.744 203.611 208.513 207.792 201.652 210.65C194.79 213.507 187.433 214.986 180 215ZM180 109.32C170.3 109.278 160.806 112.117 152.72 117.476C144.634 122.835 138.321 130.473 134.58 139.423C130.84 148.372 129.839 158.231 131.706 167.75C133.573 177.269 138.223 186.02 145.067 192.893C151.912 199.767 160.642 204.455 170.153 206.363C179.664 208.27 189.527 207.312 198.493 203.61C207.458 199.907 215.124 193.627 220.517 185.565C225.911 177.502 228.79 168.02 228.79 158.32C228.816 151.896 227.574 145.529 225.134 139.586C222.694 133.643 219.104 128.24 214.571 123.687C210.038 119.135 204.651 115.522 198.718 113.057C192.786 110.591 186.425 109.321 180 109.32ZM333.9 130.32H315.32L307.77 166.2H286.54L307.18 69.28H347.18C363.45 69.28 374.56 80.68 374.56 93.83C374.53 119.82 353.82 130.29 333.91 130.29L333.9 130.32ZM336.52 83.52H325.2L318.2 116.1H325.46C339.7 116.1 352.87 112.87 352.87 95.87C352.9 88.13 344.81 83.49 336.53 83.49L336.52 83.52ZM442.19 140.3C440.205 148.792 439.036 157.455 438.7 166.17H418.2C418.5 162.55 419.82 155.7 420.98 149.04C415.74 158.47 407.21 167.78 392.93 167.78C378.25 167.78 370.83 157.94 370.83 144.53C370.83 111.82 400.05 91.61 427.89 91.61C436.32 91.61 447.23 93.07 452.3 94.96L442.19 140.3ZM424 105.13C407.28 105.13 392 122.83 392 142.35C392 148.88 394.32 154.27 401.84 154.27C412.01 154.27 421.74 140.27 425.84 122.79L429.77 105.93C427.907 105.32 425.949 105.049 423.99 105.13H424ZM520 156.43C513.47 185.8 502.7 199.16 470.45 199.16C461.858 199.171 453.319 197.82 445.15 195.16L449 180.7C455.451 184.085 462.646 185.804 469.93 185.7C488.09 185.7 495.07 176.11 498.42 162.44L500.74 152.86C493.74 162.17 486.5 166.22 474.44 166.22C459.44 166.22 452.19 156.93 452.19 144.58C452.19 111.73 482.13 91.82 510.05 91.82C518.031 91.8485 525.975 92.9175 533.68 95L520 156.43ZM505.76 105.29C489.04 105.29 473.49 122.44 473.49 142.78C473.49 149.31 475.81 154.11 482.94 154.11C496.61 154.11 504.16 136.68 507.21 123.74L511.42 106.23C509.59 105.639 507.683 105.322 505.76 105.29ZM605.27 87C599.023 83.9199 592.165 82.2797 585.2 82.2C576.35 82.2 563.11 86.27 563.11 96.3C563.11 110.39 601.49 108.23 601.49 134.96C601.49 156.19 581.42 167.81 556.87 167.81C547.251 167.979 537.671 166.55 528.52 163.58L533.62 147.85C540.991 151.636 549.197 153.504 557.48 153.28C567.81 153.14 579.28 148.48 579.28 137.71C579.28 122.47 541.22 124.06 541.22 99.49C541.22 76.4 564.31 67.82 586.46 67.82C594.605 67.8089 602.684 69.283 610.3 72.17L605.27 87ZM628.27 135.39C627.574 137.599 627.236 139.905 627.27 142.22C627.27 152.06 634.82 155.99 643.69 155.99C651.619 155.853 659.357 153.538 666.06 149.3L665.35 162.25C656.645 166.227 647.147 168.163 637.58 167.91C621.74 167.91 606.77 161.07 606.77 143.2C606.77 114.27 628.77 91.9 654.59 91.9C666.39 91.9 679.73 96.11 679.73 109.48C679.81 132.35 646.52 135.39 628.29 135.39H628.27ZM652.82 103.57C641.82 103.57 633.82 115.05 630.16 124.49C643.24 124.49 661.54 122.17 661.54 110.72C661.71 105.32 657.78 103.56 652.9 103.56L652.82 103.57ZM746.82 156.46C740.28 185.83 729.54 199.19 697.25 199.19C688.665 199.2 680.133 197.85 671.97 195.19L675.91 180.78C682.361 184.166 689.556 185.885 696.84 185.78C715.01 185.78 721.98 176.19 725.32 162.52L727.66 152.94C720.66 162.25 713.42 166.3 701.34 166.3C686.34 166.3 679.12 157.01 679.12 144.66C679.12 111.81 709.05 91.9 736.95 91.9C744.921 91.9049 752.858 92.947 760.56 95L746.82 156.46ZM732.58 105.32C715.86 105.32 700.32 122.47 700.32 142.81C700.32 149.34 702.64 154.14 709.76 154.14C723.42 154.14 730.97 136.71 734.04 123.77L738.25 106.26C736.414 105.664 734.5 105.347 732.57 105.32H732.58ZM827.34 149.79C826.138 155.209 825.213 160.686 824.57 166.2H805.82L807.82 153.14C801.57 161.7 793.82 167.81 781.82 167.81C769.82 167.81 761.82 161.91 761.82 149.81C761.775 147.026 762.016 144.245 762.54 141.51L772.85 93.12H792.92L783.81 137.12C783.16 139.592 782.771 142.126 782.65 144.68C782.65 150.21 785.27 154.28 792.25 154.28C803.15 154.28 808.25 144.28 810.25 134.94L819.25 93.08H839.25L827.34 149.79ZM892.89 110.68C890.999 109.995 889.001 109.656 886.99 109.68C873.75 109.68 866.35 122.49 863.87 134.12L857.05 166.22H836.83L848.83 109.54C850.078 104.217 851.052 98.833 851.75 93.41H870.63L867.88 108.41C872.38 99.41 881.26 91.69 891.72 91.69C893.679 91.6422 895.634 91.8883 897.52 92.42L892.89 110.68ZM922.24 167.81C906.11 167.81 891.24 158.94 891.24 141.35C891.24 113.16 909.41 91.8 938.33 91.8C954.46 91.8 969.14 100.38 969.14 118.1C969.14 146 950.68 167.81 922.2 167.81H922.24ZM934.89 105.32C919.89 105.32 912.37 126.52 912.37 139.17C912.37 147.89 915.71 154.3 925.15 154.3C939.83 154.3 948.27 132.94 948.27 120.42C948.27 111.68 944.33 105.29 934.89 105.29V105.32Z" fill="white"/>
</g>
<defs>
<clipPath id="clip0_28_6">
<rect width="969.18" height="247.82" fill="white"/>
</clipPath>
</defs>
</svg>
