<svg width="864" height="138" viewBox="0 0 864 138" fill="none" xmlns="http://www.w3.org/2000/svg">
<path d="M562.404 96.9999C562.404 78.5623 562.404 60.6246 562.404 42.4009C569.7 42.4009 577.127 42.4009 585.144 42.4009C585.624 45.9478 586.123 49.6438 586.7 53.9096C587.51 53.29 588.015 53.0368 588.338 52.6366C597.524 41.2578 609.575 37.9455 623.233 41.4699C636.396 44.8665 643.599 54.9604 644.313 67.6901C645.455 88.0483 644.619 108.517 644.619 129.27C636.242 129.27 627.365 129.27 618.082 129.27C618.082 113.993 618.133 99.0366 618.044 84.0807C618.023 80.6103 617.863 77.0745 617.178 73.6878C615.601 65.8829 610.638 61.8642 603.777 62.3517C596.265 62.8854 590.035 68.6989 589.883 76.1479C589.608 89.5819 589.779 103.025 589.766 116.465C589.762 120.597 589.765 124.729 589.765 129.228C580.652 129.228 571.913 129.228 562.404 129.228C562.404 118.667 562.404 108.083 562.404 96.9999Z" fill="#3755A2"/>
<path d="M783.607 130.47C782.849 128.669 782.258 126.96 782.249 125.247C782.172 111.751 782.253 98.253 782.173 84.7564C782.153 81.4415 782.074 78.0568 781.41 74.8297C779.775 66.8712 774.554 62.7219 767.576 63.3747C760.052 64.0786 754.099 69.886 753.959 77.4739C753.695 91.7989 753.825 106.131 753.795 120.46C753.788 123.605 753.794 126.75 753.794 130.243C744.711 130.243 735.968 130.243 726.59 130.243C726.59 101.402 726.59 72.6002 726.59 43.14C733.232 43.14 740.165 43.015 747.082 43.2856C748.031 43.3227 749.409 45.2039 749.708 46.4435C750.351 49.112 750.42 51.9186 750.836 55.6837C756.372 48.2373 762.719 43.633 770.869 41.9977C790.336 38.0921 806.429 48.4436 808.43 68.5475C810.449 88.8347 809.766 109.391 810.285 130.561C800.926 130.561 792.485 130.561 783.607 130.47Z" fill="#3754A2"/>
<path d="M457.692 111.101C455.21 94.0939 463.366 81.7596 480.763 76.1065C485.168 74.6752 489.79 73.7943 494.378 73.0802C498.787 72.3938 503.282 72.2512 507.724 71.8709C508.405 64.9009 504.489 60.7117 496.435 59.9959C486.713 59.1318 477.635 61.4838 468.375 66.3078C466.646 60.364 464.982 54.6405 463.281 48.7933C478.021 41.4712 493.063 39.2358 508.743 42.1047C524.147 44.9228 533.902 55.9395 534.931 71.8095C535.534 81.0985 535.476 90.4348 535.566 99.7513C535.664 109.86 535.588 119.969 535.588 130.565C529.252 130.565 521.953 130.645 514.66 130.459C513.796 130.437 512.583 129.111 512.209 128.131C511.509 126.298 511.305 124.276 510.795 121.856C500.209 132.035 487.981 135.232 474.403 130.591C465.502 127.55 459.886 120.876 457.692 111.101ZM509.135 99.2017C509.135 95.9506 509.135 92.6995 509.135 89.5302C500.687 88.7655 491.761 90.9336 487.761 94.496C484.053 97.7983 482.853 102.625 484.614 107.154C486.246 111.353 490.274 113.658 495.449 113.356C502.804 112.926 508.007 107.894 509.135 99.2017Z" fill="#3653A2"/>
<path d="M366.121 54.9086C374.649 67.2602 376.126 80.6203 374.206 95.0597C355.419 95.0597 336.98 95.0597 318.554 95.0597C318.392 101.545 321.617 106.242 327.945 109.066C338.033 113.567 348.396 112.498 358.784 110.507C361.354 110.015 363.884 109.308 366.838 108.603C368.006 114.757 369.109 120.567 370.305 126.872C351.527 133.013 332.956 135.425 314.63 127.365C301.236 121.474 294.646 110.075 292.451 95.7723C289.36 75.6347 298.056 55.7263 314.249 46.4211C329.701 37.5421 354.69 38.9833 366.121 54.9086ZM332.084 59.3268C322.999 62.2317 317.956 68.688 318.495 76.796C328.901 76.796 339.31 76.796 349.721 76.796C349.531 64.7858 343.533 58.8856 332.084 59.3268Z" fill="#3452A1"/>
<path d="M449.336 6.06471C449.042 12.2312 448.772 17.981 448.502 23.7405C431.009 22.3039 425.889 26.9682 427.419 42.8814C432.944 42.8814 438.53 42.8814 444.414 42.8814C444.414 49.5804 444.414 55.8213 444.414 62.6642C438.831 62.6642 433.287 62.6642 427.306 62.6642C427.306 85.325 427.306 107.395 427.306 129.81C418.131 129.81 409.394 129.81 400.08 129.81C400.08 107.896 400.08 85.8571 400.08 63.2896C395.95 63.2896 392.369 63.2896 388.465 63.2896C388.465 56.5078 388.465 50.2556 388.465 43.3119C392.122 43.3119 395.807 43.3119 399.267 43.3119C400.066 37.38 400.23 32.0102 401.57 26.9518C406.587 8.01227 422.837 -1.14627 444.404 2.61711C446.192 2.92911 449.678 1.49971 449.336 6.06471Z" fill="#3451A1"/>
<path d="M153.608 47.529C167.646 39.2858 185.902 38.8208 201.415 46.4112C200.021 52.3187 198.591 58.3807 197.166 64.4235C191.932 63.0138 187.092 61.442 182.134 60.4822C179.439 59.9606 176.244 59.7464 173.823 60.7361C171.414 61.721 168.498 64.1429 168.039 66.3907C167.66 68.2501 170.034 71.6497 172.075 72.8238C176.498 75.3676 181.489 76.9256 186.249 78.8825C202.413 85.528 209.248 99.9613 203.143 114.559C198.736 125.096 189.761 129.443 179.426 131.445C167.254 133.803 155.298 132.594 143.645 128.154C140.414 126.922 139.159 125.443 140.294 121.911C141.81 117.191 142.879 112.328 143.957 108.224C151.69 109.941 159.009 111.88 166.448 113.063C169.382 113.53 172.825 112.892 175.608 111.731C179.973 109.912 180.707 104.581 177.08 101.505C174.738 99.5192 171.725 98.2603 168.891 96.9353C164.539 94.9011 159.844 93.5039 155.714 91.1133C137.708 80.6925 136.665 60.2923 153.608 47.529Z" fill="#3553A1"/>
<path d="M257.837 97.6787C258.925 108.608 262.609 110.954 276.584 109.477C276.584 112.776 276.584 116.02 276.584 119.264C276.584 122.582 276.584 125.9 276.584 129.611C266.937 132.535 257.355 133.336 247.721 130.285C238.257 127.288 233.194 120.14 232.185 110.761C231.122 100.87 231.269 90.8419 231.02 80.8704C230.876 75.0832 230.994 69.2895 230.994 63.0294C227.024 63.0294 223.441 63.0294 219.577 63.0294C219.577 56.1685 219.577 49.7846 219.577 43.132C223.294 43.132 226.754 43.132 230.994 43.132C230.994 38.6451 230.842 34.3902 231.081 30.1575C231.159 28.7924 231.993 26.5813 232.944 26.2947C240.864 23.9085 248.892 21.8821 257.482 19.5882C257.482 27.4995 257.482 34.8904 257.482 42.8579C264.174 42.8579 270.402 42.8579 276.86 42.8579C276.86 49.7039 276.86 55.9768 276.86 62.8415C270.763 62.8415 264.539 62.8415 257.799 62.8415C257.799 74.6879 257.799 85.9537 257.837 97.6787Z" fill="#3552A1"/>
<path d="M699.606 71.0001C699.606 90.9375 699.606 110.375 699.606 130.208C690.425 130.208 681.58 130.208 672.465 130.208C672.465 101.279 672.465 72.5866 672.465 43.504C681.286 43.504 690.008 43.504 699.606 43.504C699.606 52.3845 699.606 61.4423 699.606 71.0001Z" fill="#3956A3"/>
<path d="M836.394 65C836.394 57.549 836.394 50.5979 836.394 43.3873C845.649 43.3873 854.369 43.3873 863.446 43.3873C863.446 72.3802 863.446 101.203 863.446 130.316C854.561 130.316 845.827 130.316 836.394 130.316C836.394 108.616 836.394 87.0581 836.394 65Z" fill="#3956A3"/>
<path d="M13.4259 79.5131C25.9246 56.6607 45.2362 41.6859 67.231 29.679C72.0162 27.0667 77.145 25.0907 82.0642 22.7155C86.794 20.4319 91.3419 19.9021 96.18 22.6828C98.8573 24.2215 101.984 24.979 105.547 26.3312C100.492 31.7141 98.2799 38.2541 90.7541 41.3813C67.6448 50.9838 47.3502 64.8285 32.1907 85.2336C25.3751 94.4077 20.9101 104.388 23.353 116.708C9.74684 103.63 6.28331 97.0002 13.4259 79.5131Z" fill="#98BF23"/>
<path d="M70.4637 99.4637C66.1691 105.156 61.4504 110.235 58.2581 116.139C53.7506 124.476 55.1606 130.177 61.5939 136.575C61.4337 137.01 61.2736 137.444 61.1134 137.878C54.8163 135.377 48.141 133.534 42.3254 130.194C36.1579 126.651 34.6618 117.955 38.6299 109.474C41.5535 103.225 45.1814 97.0458 49.6613 91.8383C60.2678 79.5091 73.1122 69.8301 87.6213 62.3229C91.7341 60.1949 95.4933 59.4168 99.884 61.017C103.275 62.2528 106.833 63.0289 110.59 64.0862C105.992 71.6523 102.055 78.4667 93.5949 82.568C85.2425 86.6169 78.2884 93.5505 70.4637 99.4637Z" fill="#203971"/>
<path d="M102.211 96.5705C106.29 97.3798 109.998 98.1254 113.764 98.8828C111.436 105.312 109.038 110.942 102.736 114.005C100.478 115.103 98.6362 117.394 97.0543 119.482C92.7784 125.124 94.2452 129.045 101.051 130.734C102.005 130.971 102.998 131.048 103.973 131.199C104.069 131.695 104.166 132.19 104.262 132.686C97.6232 134.023 91.009 136.295 84.3398 136.47C75.1731 136.711 70.8538 130.27 75.1941 122.142C78.8378 115.317 84.593 109.452 90.1293 103.872C93.2933 100.683 97.8886 98.9147 102.211 96.5705Z" fill="#50BFCE"/>
<path d="M29.2523 37.2179C16.3254 49.016 4.87662 61.3357 2.62348 78.6545C-1.80702 62.3964 2.41195 47.4918 14.2876 34.8147C19.6112 29.1319 25.7866 24.2568 31.3511 18.7869C35.8044 14.4093 40.5772 14.4141 45.9874 16.8151C45.3484 21.8525 44.4236 26.4131 39.3096 29.2915C35.7344 31.3038 32.7556 34.3758 29.2523 37.2179Z" fill="#3956A3"/>
<path d="M46.017 0.657721C37.3935 7.17548 28.7978 13.2984 20.4178 19.7037C18.8366 20.9123 18.1141 23.2445 16.9954 25.0582C16.1846 24.2546 15.3738 23.451 14.5631 22.6474C19.5018 17.8002 24.1806 12.6428 29.4672 8.21046C33.2363 5.05038 37.7551 2.74335 42.0941 0.334327C43.116 -0.233056 44.7612 0.321997 46.017 0.657721Z" fill="#62C0D1"/>
</svg>
